<svg width="217" height="197" viewBox="0 0 217 197" fill="none" xmlns="http://www.w3.org/2000/svg">
<path d="M0.999989 152.604C0.999989 151.099 2.2189 149.884 3.72382 149.902C16.3482 150.049 70.0774 150.606 106.078 149.869C122.495 149.532 131.74 149.946 148.109 148.662C161.359 147.623 168.828 147.008 181.898 144.642C191.059 142.983 203.471 139.707 210.548 137.759C212.757 137.151 214.699 139.389 213.777 141.486L197.03 179.615C196.599 180.595 195.629 181.229 194.558 181.229H3.69998C2.20881 181.229 0.999989 180.02 0.999989 178.529V152.604Z" fill="white"/>
<path d="M212.953 141.124L196.206 179.253C195.918 179.907 195.272 180.329 194.558 180.329H3.69998C2.70587 180.329 1.89999 179.523 1.89999 178.529V152.604C1.89999 151.596 2.71399 150.79 3.7133 150.802C16.3357 150.949 70.0791 151.506 106.096 150.768C110.95 150.669 115.183 150.635 119.164 150.604C128.611 150.529 136.64 150.465 148.179 149.56C161.436 148.52 168.942 147.902 182.059 145.527C191.263 143.861 203.711 140.574 210.787 138.627C212.269 138.219 213.568 139.725 212.953 141.124Z" stroke="#001793" stroke-opacity="0.5" stroke-width="1.8"/>
<path d="M212.396 138.653C157.174 138.653 79.2931 141.827 1.82886 144.146L1.82225 151.174L110.055 150.219L166.36 147.845L212.396 138.653Z" fill="#733407" stroke="#001793" stroke-opacity="0.5" stroke-width="1.8"/>
<path d="M202.263 164.689C175.748 172.751 61.9969 171.547 2.60959 168.95L2.64639 175.972L103.623 175.97L159.675 175.969L197.71 174.474L202.263 164.689Z" fill="#FF6F31"/>
<path d="M105.058 167.308C104.71 167.308 104.47 167.29 104.338 167.254C103.99 167.158 103.816 167.044 103.816 166.912C103.816 166.84 103.894 166.804 104.05 166.804C104.122 166.804 104.212 166.81 104.32 166.822C104.44 166.846 104.572 166.87 104.716 166.894C105.028 166.966 105.262 167.002 105.418 167.002C106.27 167.002 107.068 166.612 107.812 165.832C108.088 165.532 108.37 165.172 108.658 164.752C108.946 164.32 109.222 163.828 109.486 163.276C109.69 162.856 109.888 162.43 110.08 161.998C110.284 161.566 110.482 161.134 110.674 160.702C112.102 157.75 113.542 155.836 114.994 154.96C114.13 154.672 113.158 154.528 112.078 154.528C110.842 154.528 109.726 154.726 108.73 155.122C107.566 155.59 106.708 156.292 106.156 157.228C105.808 157.816 105.634 158.404 105.634 158.992C105.634 159.604 105.82 160.114 106.192 160.522C106.588 160.93 107.092 161.134 107.704 161.134C108.388 161.134 108.994 160.888 109.522 160.396C110.038 159.916 110.296 159.328 110.296 158.632C110.296 158.164 110.17 157.78 109.918 157.48C109.642 157.168 109.282 157.012 108.838 157.012C108.466 157.012 108.154 157.12 107.902 157.336C107.614 157.588 107.47 157.888 107.47 158.236C107.47 158.524 107.626 158.668 107.938 158.668C107.95 158.668 107.968 158.656 107.992 158.632C108.004 158.608 108.034 158.584 108.082 158.56C108.118 158.572 108.136 158.596 108.136 158.632C108.136 158.752 108.064 158.812 107.92 158.812C107.524 158.812 107.326 158.614 107.326 158.218C107.326 157.834 107.494 157.498 107.83 157.21C108.166 156.934 108.526 156.796 108.91 156.796C109.402 156.796 109.828 156.964 110.188 157.3C110.512 157.636 110.674 158.062 110.674 158.578C110.674 159.37 110.368 160.036 109.756 160.576C109.144 161.092 108.442 161.35 107.65 161.35C106.93 161.35 106.312 161.122 105.796 160.666C105.292 160.21 105.04 159.616 105.04 158.884C105.04 158.392 105.16 157.906 105.4 157.426C105.94 156.334 106.912 155.512 108.316 154.96C109.456 154.516 110.746 154.294 112.186 154.294C113.35 154.294 114.418 154.438 115.39 154.726C115.99 154.426 116.608 154.276 117.244 154.276C117.544 154.276 117.838 154.324 118.126 154.42C118.474 154.564 118.648 154.774 118.648 155.05C118.648 155.35 118.564 155.5 118.396 155.5C118.348 155.5 118.324 155.392 118.324 155.176C118.324 154.732 117.946 154.51 117.19 154.51C116.722 154.51 116.236 154.618 115.732 154.834C117.664 155.506 118.63 156.604 118.63 158.128C118.63 159.472 118.036 160.54 116.848 161.332C115.828 162.028 114.61 162.376 113.194 162.376C113.074 162.376 112.942 162.37 112.798 162.358C112.654 162.346 112.492 162.328 112.312 162.304C111.832 162.256 111.592 162.184 111.592 162.088C111.592 161.992 111.622 161.944 111.682 161.944H111.7H111.682C111.682 161.956 111.766 161.98 111.934 162.016C112.09 162.064 112.3 162.088 112.564 162.088C113.776 162.088 114.916 161.74 115.984 161.044C117.16 160.252 117.748 159.274 117.748 158.11C117.748 156.73 116.932 155.716 115.3 155.068C114.028 155.848 112.846 157.618 111.754 160.378C111.658 160.642 111.538 160.972 111.394 161.368C111.262 161.752 111.082 162.202 110.854 162.718C110.35 163.882 109.684 164.836 108.856 165.58C108.028 166.312 107.056 166.846 105.94 167.182C105.688 167.266 105.394 167.308 105.058 167.308ZM118.887 166.462C118.359 166.462 117.957 166.234 117.681 165.778C117.429 165.394 117.303 164.926 117.303 164.374C117.303 163.426 117.603 162.544 118.203 161.728C118.863 160.84 119.655 160.396 120.579 160.396C121.047 160.396 121.407 160.558 121.659 160.882C121.899 161.194 122.019 161.59 122.019 162.07C122.019 162.286 121.995 162.508 121.947 162.736C121.911 162.964 121.851 163.204 121.767 163.456C121.587 163.984 121.365 164.398 121.101 164.698L121.137 164.752C121.257 164.836 121.401 164.878 121.569 164.878C121.917 164.878 122.211 164.764 122.451 164.536C122.691 164.308 122.961 163.9 123.261 163.312C123.273 163.264 123.297 163.24 123.333 163.24C123.357 163.24 123.375 163.258 123.387 163.294C123.399 163.318 123.393 163.354 123.369 163.402C123.117 163.93 122.847 164.332 122.559 164.608C122.283 164.884 121.959 165.022 121.587 165.022C121.347 165.022 121.161 164.956 121.029 164.824C120.909 165.04 120.777 165.244 120.633 165.436C120.489 165.616 120.327 165.778 120.147 165.922C119.739 166.282 119.319 166.462 118.887 166.462ZM119.013 166.318C119.649 166.318 120.273 165.832 120.885 164.86C120.885 164.824 120.903 164.788 120.939 164.752C120.723 164.392 120.615 164.05 120.615 163.726C120.615 163.714 120.615 163.69 120.615 163.654C120.615 163.606 120.621 163.546 120.633 163.474C120.645 163.342 120.669 163.21 120.705 163.078C120.741 162.934 120.801 162.802 120.885 162.682C121.065 162.394 121.281 162.25 121.533 162.25H121.695C121.743 162.262 121.779 162.268 121.803 162.268C121.827 162.268 121.845 162.268 121.857 162.268C121.857 161.188 121.515 160.648 120.831 160.648C120.255 160.648 119.709 160.996 119.193 161.692C118.773 162.244 118.473 162.862 118.293 163.546C118.185 163.918 118.131 164.308 118.131 164.716C118.131 165.784 118.425 166.318 119.013 166.318ZM125.011 166.372C124.291 166.372 123.931 166.054 123.931 165.418C123.931 164.914 124.129 164.338 124.525 163.69C124.657 163.462 125.023 162.952 125.623 162.16C126.019 161.632 126.217 161.26 126.217 161.044C126.217 160.84 126.049 160.738 125.713 160.738C125.485 160.738 125.233 160.744 124.957 160.756C124.693 160.768 124.477 160.78 124.309 160.792C124.273 160.984 124.219 161.206 124.147 161.458C124.075 161.71 123.991 161.974 123.895 162.25C123.835 162.418 123.739 162.646 123.607 162.934C123.487 163.222 123.325 163.528 123.121 163.852C123.085 163.9 123.055 163.924 123.031 163.924C123.019 163.924 123.013 163.912 123.013 163.888C123.013 163.828 123.037 163.75 123.085 163.654C123.181 163.486 123.289 163.282 123.409 163.042C123.529 162.79 123.643 162.514 123.751 162.214C123.847 161.95 123.931 161.674 124.003 161.386C124.087 161.086 124.135 160.882 124.147 160.774C123.859 160.594 123.715 160.324 123.715 159.964C123.715 159.556 123.859 159.352 124.147 159.352C124.351 159.352 124.453 159.538 124.453 159.91C124.453 159.994 124.441 160.096 124.417 160.216C124.393 160.336 124.363 160.48 124.327 160.648C124.495 160.636 124.759 160.624 125.119 160.612C125.491 160.588 125.845 160.576 126.181 160.576C126.793 160.576 127.099 160.762 127.099 161.134C127.099 161.53 126.625 162.346 125.677 163.582C125.473 163.882 125.245 164.224 124.993 164.608C124.753 164.98 124.633 165.364 124.633 165.76C124.633 165.868 124.657 165.97 124.705 166.066C124.753 166.162 124.855 166.21 125.011 166.21C125.527 166.21 126.097 165.898 126.721 165.274C127.033 164.962 127.321 164.626 127.585 164.266C127.849 163.906 128.089 163.504 128.305 163.06C128.353 162.964 128.395 162.916 128.431 162.916C128.455 162.916 128.467 162.934 128.467 162.97C128.467 163.03 128.449 163.096 128.413 163.168C128.209 163.588 127.963 163.996 127.675 164.392C127.387 164.776 127.069 165.142 126.721 165.49C126.133 166.078 125.563 166.372 125.011 166.372ZM128.943 166.354C128.091 166.354 127.665 165.934 127.665 165.094C127.665 164.434 127.911 163.6 128.403 162.592C128.427 162.544 128.541 162.334 128.745 161.962C128.961 161.578 129.267 161.032 129.663 160.324H128.727L128.691 160.288L128.709 160.18L128.727 160.162H129.753L131.049 157.894C131.157 157.942 131.283 157.966 131.427 157.966C131.595 157.966 131.775 157.906 131.967 157.786C132.171 157.678 132.309 157.558 132.381 157.426L132.435 157.444L130.815 160.162H132.057L132.075 160.18V160.288L132.039 160.324H130.725L129.501 162.484C128.769 163.768 128.403 164.758 128.403 165.454C128.403 165.946 128.595 166.192 128.979 166.192C129.579 166.192 130.185 165.856 130.797 165.184C130.965 165.004 131.163 164.734 131.391 164.374C131.619 164.014 131.811 163.672 131.967 163.348C131.991 163.288 132.021 163.27 132.057 163.294C132.105 163.306 132.117 163.342 132.093 163.402C131.913 163.762 131.721 164.104 131.517 164.428C131.325 164.752 131.103 165.052 130.851 165.328C130.227 166.012 129.591 166.354 128.943 166.354ZM133.424 166.462C132.896 166.462 132.494 166.234 132.218 165.778C131.966 165.394 131.84 164.926 131.84 164.374C131.84 163.426 132.14 162.544 132.74 161.728C133.4 160.84 134.192 160.396 135.116 160.396C135.584 160.396 135.944 160.558 136.196 160.882C136.436 161.194 136.556 161.59 136.556 162.07C136.556 162.286 136.532 162.508 136.484 162.736C136.448 162.964 136.388 163.204 136.304 163.456C136.124 163.984 135.902 164.398 135.638 164.698L135.674 164.752C135.794 164.836 135.938 164.878 136.106 164.878C136.454 164.878 136.748 164.764 136.988 164.536C137.228 164.308 137.498 163.9 137.798 163.312C137.81 163.264 137.834 163.24 137.87 163.24C137.894 163.24 137.912 163.258 137.924 163.294C137.936 163.318 137.93 163.354 137.906 163.402C137.654 163.93 137.384 164.332 137.096 164.608C136.82 164.884 136.496 165.022 136.124 165.022C135.884 165.022 135.698 164.956 135.566 164.824C135.446 165.04 135.314 165.244 135.17 165.436C135.026 165.616 134.864 165.778 134.684 165.922C134.276 166.282 133.856 166.462 133.424 166.462ZM133.55 166.318C134.186 166.318 134.81 165.832 135.422 164.86C135.422 164.824 135.44 164.788 135.476 164.752C135.26 164.392 135.152 164.05 135.152 163.726C135.152 163.714 135.152 163.69 135.152 163.654C135.152 163.606 135.158 163.546 135.17 163.474C135.182 163.342 135.206 163.21 135.242 163.078C135.278 162.934 135.338 162.802 135.422 162.682C135.602 162.394 135.818 162.25 136.07 162.25H136.232C136.28 162.262 136.316 162.268 136.34 162.268C136.364 162.268 136.382 162.268 136.394 162.268C136.394 161.188 136.052 160.648 135.368 160.648C134.792 160.648 134.246 160.996 133.73 161.692C133.31 162.244 133.01 162.862 132.83 163.546C132.722 163.918 132.668 164.308 132.668 164.716C132.668 165.784 132.962 166.318 133.55 166.318ZM137.641 171.808C137.581 171.808 137.539 171.802 137.515 171.79C136.711 171.634 136.309 170.866 136.309 169.486C136.309 167.782 136.843 165.556 137.911 162.808C139.351 159.172 140.851 156.796 142.411 155.68C142.927 155.308 143.401 155.122 143.833 155.122C144.397 155.122 144.679 155.38 144.679 155.896C144.679 157.36 142.693 159.928 138.721 163.6H138.739C137.563 166.6 136.975 168.85 136.975 170.35C136.975 171.202 137.203 171.628 137.659 171.628C138.139 171.628 138.571 171.256 138.955 170.512C139.087 170.26 139.207 169.99 139.315 169.702C139.423 169.426 139.513 169.132 139.585 168.82C139.621 168.628 139.651 168.442 139.675 168.262C139.699 168.094 139.711 167.926 139.711 167.758C139.711 167.05 139.531 166.462 139.171 165.994C138.583 165.982 138.289 165.826 138.289 165.526C138.289 165.382 138.373 165.31 138.541 165.31C138.805 165.31 139.045 165.502 139.261 165.886H139.405C140.089 165.91 140.731 165.646 141.331 165.094C141.679 164.794 141.979 164.434 142.231 164.014C142.315 163.738 142.435 163.45 142.591 163.15L143.959 160.504H144.013C144.049 160.552 144.121 160.576 144.229 160.576C144.445 160.576 144.745 160.438 145.129 160.162L145.165 160.198L143.635 163.168C142.999 164.392 142.681 165.244 142.681 165.724C142.681 166.132 142.909 166.336 143.365 166.336C144.313 166.336 145.201 165.328 146.029 163.312H146.065L146.119 163.348L146.137 163.384C145.285 165.424 144.343 166.444 143.311 166.444C142.471 166.444 142.051 166.018 142.051 165.166C142.051 164.914 142.081 164.65 142.141 164.374C141.349 165.502 140.419 166.042 139.351 165.994C139.675 166.498 139.837 167.134 139.837 167.902C139.837 168.058 139.831 168.208 139.819 168.352C139.807 168.508 139.783 168.658 139.747 168.802C139.519 170.11 139.039 171.028 138.307 171.556C138.067 171.724 137.845 171.808 137.641 171.808ZM138.865 163.294C142.621 159.766 144.499 157.288 144.499 155.86C144.499 155.464 144.319 155.266 143.959 155.266C143.119 155.266 142.105 156.394 140.917 158.65C140.125 160.126 139.441 161.674 138.865 163.294ZM145.435 158.758C145.039 158.758 144.841 158.572 144.841 158.2C144.841 157.804 145.027 157.606 145.399 157.606C145.795 157.606 145.993 157.786 145.993 158.146C145.993 158.554 145.807 158.758 145.435 158.758ZM146.137 163.366V163.384V163.366ZM144.5 166.912L144.482 166.876C144.914 165.94 145.472 164.644 146.156 162.988C146.264 162.712 146.39 162.37 146.534 161.962C146.69 161.554 146.864 161.08 147.056 160.54H147.092C147.212 160.636 147.314 160.684 147.398 160.684C147.698 160.684 147.98 160.426 148.244 159.91V159.928C148.244 159.952 147.98 160.594 147.452 161.854C147.164 162.538 146.948 163.06 146.804 163.42C146.66 163.78 146.576 163.984 146.552 164.032C147.92 161.572 149.012 160.342 149.828 160.342C150.008 160.342 150.17 160.402 150.314 160.522C150.458 160.642 150.53 160.798 150.53 160.99C150.53 161.494 150.188 162.322 149.504 163.474C148.82 164.626 148.478 165.412 148.478 165.832C148.478 165.988 148.538 166.108 148.658 166.192C148.778 166.276 148.922 166.318 149.09 166.318C149.258 166.318 149.432 166.282 149.612 166.21C149.792 166.138 149.942 166.06 150.062 165.976C150.386 165.724 150.662 165.43 150.89 165.094C151.118 164.758 151.316 164.422 151.484 164.086C151.652 163.75 151.802 163.468 151.934 163.24C151.97 163.18 152.006 163.162 152.042 163.186C152.078 163.198 152.084 163.234 152.06 163.294C151.82 163.798 151.556 164.314 151.268 164.842C150.98 165.37 150.614 165.79 150.17 166.102C150.014 166.21 149.84 166.3 149.648 166.372C149.468 166.444 149.276 166.48 149.072 166.48C148.736 166.48 148.46 166.39 148.244 166.21C148.04 166.03 147.938 165.754 147.938 165.382C147.938 164.734 148.238 163.918 148.838 162.934C149.45 161.926 149.756 161.29 149.756 161.026C149.756 160.822 149.642 160.72 149.414 160.72H149.306C149.042 160.72 148.682 161.026 148.226 161.638C147.77 162.238 147.218 163.126 146.57 164.302C146.414 164.566 146.252 164.872 146.084 165.22C145.928 165.556 145.76 165.934 145.58 166.354L145.544 166.372C145.4 166.3 145.274 166.264 145.166 166.264C145.01 166.264 144.878 166.36 144.77 166.552C144.674 166.756 144.584 166.876 144.5 166.912ZM153.323 166.462C152.795 166.462 152.393 166.234 152.117 165.778C151.865 165.394 151.739 164.926 151.739 164.374C151.739 163.426 152.039 162.544 152.639 161.728C153.299 160.84 154.091 160.396 155.015 160.396C155.483 160.396 155.843 160.558 156.095 160.882C156.335 161.194 156.455 161.59 156.455 162.07C156.455 162.286 156.431 162.508 156.383 162.736C156.347 162.964 156.287 163.204 156.203 163.456C156.023 163.984 155.801 164.398 155.537 164.698L155.573 164.752C155.693 164.836 155.837 164.878 156.005 164.878C156.353 164.878 156.647 164.764 156.887 164.536C157.127 164.308 157.397 163.9 157.697 163.312C157.709 163.264 157.733 163.24 157.769 163.24C157.793 163.24 157.811 163.258 157.823 163.294C157.835 163.318 157.829 163.354 157.805 163.402C157.553 163.93 157.283 164.332 156.995 164.608C156.719 164.884 156.395 165.022 156.023 165.022C155.783 165.022 155.597 164.956 155.465 164.824C155.345 165.04 155.213 165.244 155.069 165.436C154.925 165.616 154.763 165.778 154.583 165.922C154.175 166.282 153.755 166.462 153.323 166.462ZM153.449 166.318C154.085 166.318 154.709 165.832 155.321 164.86C155.321 164.824 155.339 164.788 155.375 164.752C155.159 164.392 155.051 164.05 155.051 163.726C155.051 163.714 155.051 163.69 155.051 163.654C155.051 163.606 155.057 163.546 155.069 163.474C155.081 163.342 155.105 163.21 155.141 163.078C155.177 162.934 155.237 162.802 155.321 162.682C155.501 162.394 155.717 162.25 155.969 162.25H156.131C156.179 162.262 156.215 162.268 156.239 162.268C156.263 162.268 156.281 162.268 156.293 162.268C156.293 161.188 155.951 160.648 155.267 160.648C154.691 160.648 154.145 160.996 153.629 161.692C153.209 162.244 152.909 162.862 152.729 163.546C152.621 163.918 152.567 164.308 152.567 164.716C152.567 165.784 152.861 166.318 153.449 166.318Z" fill="black"/>
<line x1="130.162" y1="146.348" x2="130.162" stroke="#001793" stroke-opacity="0.5" stroke-width="5.4"/>
<path d="M129.153 1.60823C77.0679 19.9419 35.7511 83.2253 21.6034 112.575H129.153V1.60823Z" fill="white" stroke="#001793" stroke-opacity="0.5" stroke-width="1.8"/>
</svg>
