<svg width="530" height="358" viewBox="0 0 530 358" fill="none" xmlns="http://www.w3.org/2000/svg">
<path d="M84 26.2667H208V358H84V26.2667Z" fill="#F28A75"/>
<path d="M84 26.2667H208V358H84V26.2667Z" fill="#F28A75"/>
<path d="M84 26.2667H208V358H84V26.2667Z" fill="#F28A75"/>
<path d="M84 26.2667H208V358H84V26.2667Z" fill="#F28A75"/>
<path d="M84 26.2667H208V358H84V26.2667Z" stroke="white" stroke-width="12"/>
<line x1="86" y1="147.933" x2="210" y2="147.933" stroke="white" stroke-width="2"/>
<line x1="84" y1="259.933" x2="208" y2="259.933" stroke="white" stroke-width="2"/>
<rect x="126.5" y="178.233" width="42" height="58.7333" fill="#398761" stroke="#240000"/>
<line x1="147.5" y1="178.8" x2="147.5" y2="236.4" stroke="white"/>
<path d="M175 177.733L147 177.789L119 177.845" stroke="#240000" stroke-width="2"/>
<path d="M175 237.467L147 237.526L119 237.586" stroke="#240000" stroke-width="2"/>
<rect x="126.5" y="60.9" width="42" height="58.7333" fill="#398761" stroke="#240000"/>
<line x1="147.5" y1="61.4667" x2="147.5" y2="119.067" stroke="white"/>
<path d="M175 60.4L147 60.4559L119 60.5118" stroke="#240000" stroke-width="2"/>
<path d="M175 120.133L147 120.193L119 120.253" stroke="#240000" stroke-width="2"/>
<path d="M117.5 292.367H176.5V351.1H117.5V292.367Z" fill="#733407" stroke="#240000"/>
<line x1="147.5" y1="291.867" x2="147.5" y2="351.6" stroke="white"/>
<path d="M183 289.733L165.25 289.771L147.5 289.809L112 289.885" stroke="white" stroke-width="12"/>
<path d="M208 26.2667L176.5 26.2667L146 26.2667L85 26.2667" stroke="#B64506" stroke-width="12"/>
<path d="M208 6L176.5 6L146 6L85 6" stroke="white" stroke-width="12"/>
<path d="M214 15.6L180 15.6L146 15.6L78 15.6" stroke="white" stroke-width="10"/>
<path d="M127.196 291.239C127.524 291.239 127.778 291.193 127.958 291.101C128.138 291.009 128.228 290.875 128.228 290.699C128.228 290.543 128.174 290.409 128.066 290.297C127.958 290.181 127.824 290.083 127.664 290.003C127.504 289.923 127.286 289.829 127.01 289.721C126.986 289.713 126.928 289.691 126.836 289.655C126.46 289.503 126.17 289.351 125.966 289.199C125.766 289.047 125.666 288.851 125.666 288.611C125.666 288.343 125.772 288.141 125.984 288.005C126.196 287.869 126.468 287.801 126.8 287.801C127.044 287.801 127.268 287.833 127.472 287.897C127.68 287.957 127.844 288.041 127.964 288.149C128.088 288.257 128.15 288.379 128.15 288.515C128.102 288.539 128.056 288.551 128.012 288.551C127.964 288.551 127.914 288.541 127.862 288.521C127.814 288.497 127.742 288.459 127.646 288.407C127.49 288.323 127.344 288.257 127.208 288.209C127.072 288.157 126.912 288.131 126.728 288.131C126.496 288.131 126.308 288.171 126.164 288.251C126.02 288.331 125.948 288.443 125.948 288.587C125.948 288.699 125.996 288.801 126.092 288.893C126.192 288.985 126.316 289.067 126.464 289.139C126.616 289.207 126.818 289.289 127.07 289.385C127.39 289.509 127.654 289.625 127.862 289.733C128.07 289.841 128.246 289.979 128.39 290.147C128.538 290.311 128.612 290.507 128.612 290.735C128.612 291.003 128.484 291.211 128.228 291.359C127.972 291.503 127.654 291.575 127.274 291.575C126.974 291.575 126.678 291.531 126.386 291.443C126.094 291.355 125.844 291.225 125.636 291.053C125.428 290.877 125.296 290.667 125.24 290.423C125.24 290.315 125.27 290.223 125.33 290.147C125.39 290.067 125.464 290.027 125.552 290.027C125.552 290.287 125.624 290.509 125.768 290.693C125.916 290.873 126.114 291.009 126.362 291.101C126.614 291.193 126.892 291.239 127.196 291.239ZM130.878 291.473C130.546 291.473 130.248 291.405 129.984 291.269C129.724 291.133 129.52 290.941 129.372 290.693C129.224 290.445 129.15 290.159 129.15 289.835C129.15 289.615 129.194 289.413 129.282 289.229C129.37 289.045 129.498 288.899 129.666 288.791C129.834 288.679 130.032 288.623 130.26 288.623C130.692 288.623 131.076 288.697 131.412 288.845C131.752 288.989 132.016 289.197 132.204 289.469C132.396 289.741 132.492 290.055 132.492 290.411C132.492 290.647 132.404 290.845 132.228 291.005C132.056 291.165 131.844 291.283 131.592 291.359C131.344 291.435 131.106 291.473 130.878 291.473ZM130.764 291.161C131.164 291.161 131.5 291.101 131.772 290.981C132.048 290.861 132.186 290.661 132.186 290.381C132.186 289.893 131.998 289.527 131.622 289.283C131.246 289.035 130.766 288.911 130.182 288.911C129.902 288.911 129.704 288.995 129.588 289.163C129.476 289.327 129.42 289.551 129.42 289.835C129.42 290.071 129.476 290.291 129.588 290.495C129.704 290.695 129.864 290.857 130.068 290.981C130.272 291.101 130.504 291.161 130.764 291.161ZM134.509 291.473C134.037 291.473 133.701 291.261 133.501 290.837C133.305 290.413 133.191 289.861 133.159 289.181C133.155 289.121 133.153 289.035 133.153 288.923C133.153 288.695 133.181 288.519 133.237 288.395C133.297 288.267 133.407 288.203 133.567 288.203C133.611 288.203 133.645 288.215 133.669 288.239C133.693 288.259 133.705 288.287 133.705 288.323C133.705 288.399 133.659 288.473 133.567 288.545C133.515 288.545 133.479 288.579 133.459 288.647C133.443 288.715 133.435 288.819 133.435 288.959C133.435 289.087 133.437 289.189 133.441 289.265C133.465 289.861 133.575 290.333 133.771 290.681C133.967 291.025 134.239 291.197 134.587 291.197C134.787 291.197 134.967 291.149 135.127 291.053C135.287 290.957 135.411 290.829 135.499 290.669C135.591 290.505 135.637 290.329 135.637 290.141C135.597 289.813 135.565 289.583 135.541 289.451C135.517 289.319 135.473 289.105 135.409 288.809C135.381 288.693 135.367 288.591 135.367 288.503C135.367 288.411 135.385 288.347 135.421 288.311C135.457 288.275 135.511 288.257 135.583 288.257C135.627 288.257 135.661 288.283 135.685 288.335C135.709 288.387 135.731 288.489 135.751 288.641C135.771 288.793 135.797 289.041 135.829 289.385C135.849 289.581 135.887 289.773 135.943 289.961C136.003 290.149 136.081 290.365 136.177 290.609C136.185 290.633 136.207 290.693 136.243 290.789C136.279 290.881 136.305 290.957 136.321 291.017C136.337 291.077 136.345 291.125 136.345 291.161C136.345 291.253 136.297 291.299 136.201 291.299C136.169 291.299 136.051 291.053 135.847 290.561C135.803 290.741 135.713 290.901 135.577 291.041C135.441 291.177 135.279 291.283 135.091 291.359C134.903 291.435 134.709 291.473 134.509 291.473ZM138.12 291.473C138.096 291.481 138.076 291.485 138.06 291.485C138.04 291.485 138.018 291.479 137.994 291.467C137.89 291.307 137.808 291.171 137.748 291.059C137.692 290.943 137.598 290.743 137.466 290.459C137.322 290.123 137.138 289.649 136.914 289.037C136.69 288.425 136.578 288.051 136.578 287.915C136.578 287.879 136.586 287.853 136.602 287.837C136.618 287.817 136.638 287.807 136.662 287.807C136.682 287.807 136.698 287.811 136.71 287.819C136.758 287.847 136.834 287.987 136.938 288.239C137.046 288.487 137.194 288.859 137.382 289.355C137.69 290.171 137.934 290.775 138.114 291.167C138.202 291.083 138.326 290.835 138.486 290.423C138.646 290.007 138.792 289.547 138.924 289.043C139.06 288.539 139.14 288.111 139.164 287.759C139.34 287.747 139.428 287.817 139.428 287.969C139.428 288.225 139.356 288.625 139.212 289.169C139.068 289.713 138.894 290.215 138.69 290.675C138.486 291.131 138.296 291.397 138.12 291.473ZM140.95 291.473C140.618 291.473 140.376 291.411 140.224 291.287C140.076 291.163 140.002 290.939 140.002 290.615L140.086 289.271V287.981C140.086 287.881 140.106 287.817 140.146 287.789C140.186 287.757 140.274 287.741 140.41 287.741L140.818 287.753C141.33 287.781 141.83 287.795 142.318 287.795C142.422 287.795 142.504 287.825 142.564 287.885C142.628 287.945 142.66 288.027 142.66 288.131C142.66 288.151 142.654 288.167 142.642 288.179C142.63 288.191 142.616 288.195 142.6 288.191L142.318 288.083L140.44 288.131C140.416 288.131 140.402 288.129 140.398 288.125C140.414 288.157 140.422 288.185 140.422 288.209V289.271C140.606 289.283 140.784 289.289 140.956 289.289C141.252 289.289 141.578 289.275 141.934 289.247C141.97 289.243 142.024 289.239 142.096 289.235C142.172 289.227 142.214 289.227 142.222 289.235C142.246 289.259 142.264 289.281 142.276 289.301C142.288 289.321 142.296 289.349 142.3 289.385C142.312 289.473 142.178 289.531 141.898 289.559C141.622 289.587 141.252 289.609 140.788 289.625C140.632 289.625 140.502 289.629 140.398 289.637C140.35 289.757 140.326 289.949 140.326 290.213L140.332 290.567V290.957C140.396 291.009 140.466 291.043 140.542 291.059C140.618 291.075 140.742 291.083 140.914 291.083C141.094 291.083 141.27 291.073 141.442 291.053C141.618 291.033 141.722 291.021 141.754 291.017C142.09 290.977 142.34 290.957 142.504 290.957C142.6 290.957 142.666 290.967 142.702 290.987C142.742 291.003 142.762 291.033 142.762 291.077C142.762 291.341 142.226 291.473 141.154 291.473H140.95ZM145.933 288.479C146.049 288.479 146.169 288.593 146.293 288.821C146.417 289.049 146.521 289.311 146.605 289.607C146.689 289.899 146.731 290.117 146.731 290.261C146.731 290.481 146.683 290.679 146.587 290.855C146.495 291.027 146.363 291.163 146.191 291.263C146.019 291.359 145.823 291.407 145.603 291.407C145.299 291.407 145.035 291.325 144.811 291.161C144.591 290.997 144.415 290.809 144.283 290.597C144.151 290.381 144.015 290.123 143.875 289.823L143.791 289.643L143.803 291.095C143.803 291.183 143.787 291.269 143.755 291.353C143.727 291.433 143.677 291.473 143.605 291.473C143.533 291.473 143.481 291.433 143.449 291.353C143.417 291.269 143.401 291.187 143.401 291.107C143.401 290.851 143.421 290.483 143.461 290.003C143.501 289.523 143.521 289.165 143.521 288.929C143.521 288.873 143.517 288.815 143.509 288.755C143.501 288.695 143.495 288.653 143.491 288.629C143.471 288.521 143.461 288.425 143.461 288.341V288.317C143.473 288.317 143.509 288.309 143.569 288.293C143.633 288.273 143.671 288.263 143.683 288.263H143.743C143.895 288.947 144.119 289.579 144.415 290.159C144.715 290.735 145.125 291.023 145.645 291.023C145.889 291.023 146.073 290.951 146.197 290.807C146.325 290.659 146.389 290.461 146.389 290.213C146.389 290.001 146.355 289.807 146.287 289.631C146.219 289.451 146.117 289.231 145.981 288.971L145.819 288.653C145.807 288.633 145.801 288.613 145.801 288.593C145.801 288.561 145.813 288.535 145.837 288.515C145.861 288.491 145.893 288.479 145.933 288.479ZM143.803 291.095V291.083V291.095ZM148.086 291.467C148.034 291.487 147.984 291.475 147.936 291.431C147.892 291.387 147.868 291.325 147.864 291.245C147.848 291.129 147.83 290.987 147.81 290.819C147.794 290.651 147.782 290.527 147.774 290.447C147.766 290.367 147.748 290.213 147.72 289.985C147.696 289.753 147.67 289.553 147.642 289.385C147.634 289.329 147.608 289.229 147.564 289.085C147.448 288.673 147.39 288.375 147.39 288.191C147.418 288.151 147.446 288.131 147.474 288.131C147.578 288.131 147.686 288.339 147.798 288.755C147.91 289.171 148.004 289.641 148.08 290.165C148.16 290.685 148.2 291.041 148.2 291.233C148.2 291.241 148.2 291.267 148.2 291.311C148.2 291.351 148.19 291.385 148.17 291.413C148.154 291.441 148.126 291.459 148.086 291.467ZM151.766 291.671C151.738 291.703 151.698 291.719 151.646 291.719C151.458 291.719 151.158 291.547 150.746 291.203C150.338 290.855 149.976 290.509 149.66 290.165C149.68 290.273 149.718 290.455 149.774 290.711C149.798 290.811 149.818 290.907 149.834 290.999C149.854 291.091 149.864 291.163 149.864 291.215C149.864 291.331 149.822 291.401 149.738 291.425C149.718 291.477 149.664 291.347 149.576 291.035C149.492 290.723 149.412 290.363 149.336 289.955C149.264 289.543 149.228 289.199 149.228 288.923C149.228 288.783 149.24 288.669 149.264 288.581C149.316 288.541 149.36 288.521 149.396 288.521C149.468 288.521 149.518 288.583 149.546 288.707C149.574 288.827 149.6 289.017 149.624 289.277L149.636 289.415C149.792 289.407 150.004 289.373 150.272 289.313C150.544 289.253 150.786 289.171 150.998 289.067C151.214 288.959 151.322 288.831 151.322 288.683C151.322 288.603 151.264 288.515 151.148 288.419C151.036 288.319 150.862 288.235 150.626 288.167C150.394 288.099 150.108 288.065 149.768 288.065H149.576C149.348 288.065 149.17 288.103 149.042 288.179C148.914 288.251 148.85 288.407 148.85 288.647C148.79 288.647 148.736 288.609 148.688 288.533C148.64 288.457 148.616 288.387 148.616 288.323C148.616 288.075 148.734 287.913 148.97 287.837C149.21 287.761 149.554 287.723 150.002 287.723C150.238 287.723 150.484 287.761 150.74 287.837C150.996 287.913 151.212 288.033 151.388 288.197C151.564 288.357 151.652 288.557 151.652 288.797C151.652 288.961 151.578 289.097 151.43 289.205C151.286 289.313 151.116 289.397 150.92 289.457C150.724 289.517 150.484 289.579 150.2 289.643C149.964 289.695 149.81 289.733 149.738 289.757C150.046 290.173 150.342 290.497 150.626 290.729C150.914 290.961 151.214 291.171 151.526 291.359C151.634 291.423 151.71 291.471 151.754 291.503C151.798 291.535 151.82 291.565 151.82 291.593C151.82 291.621 151.802 291.647 151.766 291.671ZM156.552 291.881C156.416 291.881 156.324 291.809 156.276 291.665C156.232 291.525 156.21 291.371 156.21 291.203L156.228 291.029C156.032 291.153 155.8 291.251 155.532 291.323C155.268 291.395 154.99 291.431 154.698 291.431C154.486 291.431 154.298 291.383 154.134 291.287C153.97 291.187 153.842 291.053 153.75 290.885C153.662 290.713 153.618 290.519 153.618 290.303C153.618 289.975 153.746 289.665 154.002 289.373C154.258 289.077 154.572 288.837 154.944 288.653C155.32 288.465 155.668 288.359 155.988 288.335C156.148 288.319 156.284 288.355 156.396 288.443C156.508 288.527 156.564 288.645 156.564 288.797C156.48 288.797 156.38 288.775 156.264 288.731C156.248 288.727 156.206 288.715 156.138 288.695C156.07 288.675 156 288.665 155.928 288.665C155.644 288.665 155.342 288.747 155.022 288.911C154.706 289.075 154.44 289.293 154.224 289.565C154.012 289.833 153.906 290.115 153.906 290.411C153.906 290.551 153.948 290.673 154.032 290.777C154.12 290.877 154.228 290.955 154.356 291.011C154.488 291.063 154.62 291.089 154.752 291.089C155.068 291.089 155.328 291.077 155.532 291.053C155.736 291.025 155.912 290.955 156.06 290.843C156.208 290.727 156.282 290.551 156.282 290.315C156.282 290.203 156.258 290.125 156.21 290.081H155.142C155.086 290.081 155.032 290.053 154.98 289.997C154.932 289.941 154.908 289.885 154.908 289.829C154.908 289.729 154.938 289.679 154.998 289.679C155.046 289.679 155.122 289.699 155.226 289.739C155.322 289.783 155.404 289.805 155.472 289.805C155.56 289.805 155.696 289.793 155.88 289.769C155.912 289.765 155.97 289.759 156.054 289.751C156.138 289.743 156.214 289.739 156.282 289.739C156.35 289.739 156.416 289.769 156.48 289.829C156.548 289.885 156.58 289.949 156.576 290.021L156.54 291.407C156.568 291.463 156.616 291.511 156.684 291.551C156.708 291.563 156.728 291.577 156.744 291.593C156.76 291.613 156.77 291.633 156.774 291.653C156.794 291.697 156.774 291.745 156.714 291.797C156.654 291.853 156.6 291.881 156.552 291.881ZM160.14 291.473C160.092 291.473 160.058 291.461 160.038 291.437C160.022 291.413 160.014 291.379 160.014 291.335C160.014 291.247 160.034 291.111 160.074 290.927C160.118 290.759 160.14 290.621 160.14 290.513C160.14 290.201 160.116 289.963 160.068 289.799H159.882C159.718 289.799 159.504 289.795 159.24 289.787L158.676 289.781H157.866L157.878 290.015C157.878 290.199 157.908 290.429 157.968 290.705C157.988 290.817 158.006 290.931 158.022 291.047C158.042 291.159 158.052 291.261 158.052 291.353V291.407C158.012 291.447 157.97 291.467 157.926 291.467C157.822 291.467 157.74 291.345 157.68 291.101C157.62 290.853 157.59 290.555 157.59 290.207C157.59 290.067 157.596 289.929 157.608 289.793C157.52 289.789 157.46 289.775 157.428 289.751C157.396 289.723 157.38 289.681 157.38 289.625C157.38 289.581 157.392 289.551 157.416 289.535C157.444 289.519 157.492 289.507 157.56 289.499L157.554 289.337L157.572 289.061C157.6 288.609 157.642 288.241 157.698 287.957C157.754 287.673 157.874 287.427 158.058 287.219C158.242 287.011 158.518 286.907 158.886 286.907C159.306 286.907 159.634 287.133 159.87 287.585C160.106 288.037 160.266 288.541 160.35 289.097C160.434 289.653 160.476 290.131 160.476 290.531C160.476 290.675 160.472 290.801 160.464 290.909C160.456 291.013 160.44 291.143 160.416 291.299C160.324 291.415 160.232 291.473 160.14 291.473ZM160.044 289.565C159.968 288.825 159.832 288.245 159.636 287.825C159.44 287.401 159.146 287.189 158.754 287.189C158.462 287.189 158.246 287.325 158.106 287.597C157.97 287.865 157.888 288.153 157.86 288.461C157.832 288.769 157.818 289.115 157.818 289.499L160.044 289.565ZM161.773 291.467C161.721 291.487 161.671 291.475 161.623 291.431C161.579 291.387 161.555 291.325 161.551 291.245C161.535 291.129 161.517 290.987 161.497 290.819C161.481 290.651 161.469 290.527 161.461 290.447C161.453 290.367 161.435 290.213 161.407 289.985C161.383 289.753 161.357 289.553 161.329 289.385C161.321 289.329 161.295 289.229 161.251 289.085C161.135 288.673 161.077 288.375 161.077 288.191C161.105 288.151 161.133 288.131 161.161 288.131C161.265 288.131 161.373 288.339 161.485 288.755C161.597 289.171 161.691 289.641 161.767 290.165C161.847 290.685 161.887 291.041 161.887 291.233C161.887 291.241 161.887 291.267 161.887 291.311C161.887 291.351 161.877 291.385 161.857 291.413C161.841 291.441 161.813 291.459 161.773 291.467ZM163.737 291.473C163.405 291.473 163.163 291.411 163.011 291.287C162.863 291.163 162.789 290.939 162.789 290.615L162.873 289.271V287.981C162.873 287.881 162.893 287.817 162.933 287.789C162.973 287.757 163.061 287.741 163.197 287.741L163.605 287.753C164.117 287.781 164.617 287.795 165.105 287.795C165.209 287.795 165.291 287.825 165.351 287.885C165.415 287.945 165.447 288.027 165.447 288.131C165.447 288.151 165.441 288.167 165.429 288.179C165.417 288.191 165.403 288.195 165.387 288.191L165.105 288.083L163.227 288.131C163.203 288.131 163.189 288.129 163.185 288.125C163.201 288.157 163.209 288.185 163.209 288.209V289.271C163.393 289.283 163.571 289.289 163.743 289.289C164.039 289.289 164.365 289.275 164.721 289.247C164.757 289.243 164.811 289.239 164.883 289.235C164.959 289.227 165.001 289.227 165.009 289.235C165.033 289.259 165.051 289.281 165.063 289.301C165.075 289.321 165.083 289.349 165.087 289.385C165.099 289.473 164.965 289.531 164.685 289.559C164.409 289.587 164.039 289.609 163.575 289.625C163.419 289.625 163.289 289.629 163.185 289.637C163.137 289.757 163.113 289.949 163.113 290.213L163.119 290.567V290.957C163.183 291.009 163.253 291.043 163.329 291.059C163.405 291.075 163.529 291.083 163.701 291.083C163.881 291.083 164.057 291.073 164.229 291.053C164.405 291.033 164.509 291.021 164.541 291.017C164.877 290.977 165.127 290.957 165.291 290.957C165.387 290.957 165.453 290.967 165.489 290.987C165.529 291.003 165.549 291.033 165.549 291.077C165.549 291.341 165.013 291.473 163.941 291.473H163.737ZM168.024 291.239C168.352 291.239 168.606 291.193 168.786 291.101C168.966 291.009 169.056 290.875 169.056 290.699C169.056 290.543 169.002 290.409 168.894 290.297C168.786 290.181 168.652 290.083 168.492 290.003C168.332 289.923 168.114 289.829 167.838 289.721C167.814 289.713 167.756 289.691 167.664 289.655C167.288 289.503 166.998 289.351 166.794 289.199C166.594 289.047 166.494 288.851 166.494 288.611C166.494 288.343 166.6 288.141 166.812 288.005C167.024 287.869 167.296 287.801 167.628 287.801C167.872 287.801 168.096 287.833 168.3 287.897C168.508 287.957 168.672 288.041 168.792 288.149C168.916 288.257 168.978 288.379 168.978 288.515C168.93 288.539 168.884 288.551 168.84 288.551C168.792 288.551 168.742 288.541 168.69 288.521C168.642 288.497 168.57 288.459 168.474 288.407C168.318 288.323 168.172 288.257 168.036 288.209C167.9 288.157 167.74 288.131 167.556 288.131C167.324 288.131 167.136 288.171 166.992 288.251C166.848 288.331 166.776 288.443 166.776 288.587C166.776 288.699 166.824 288.801 166.92 288.893C167.02 288.985 167.144 289.067 167.292 289.139C167.444 289.207 167.646 289.289 167.898 289.385C168.218 289.509 168.482 289.625 168.69 289.733C168.898 289.841 169.074 289.979 169.218 290.147C169.366 290.311 169.44 290.507 169.44 290.735C169.44 291.003 169.312 291.211 169.056 291.359C168.8 291.503 168.482 291.575 168.102 291.575C167.802 291.575 167.506 291.531 167.214 291.443C166.922 291.355 166.672 291.225 166.464 291.053C166.256 290.877 166.124 290.667 166.068 290.423C166.068 290.315 166.098 290.223 166.158 290.147C166.218 290.067 166.292 290.027 166.38 290.027C166.38 290.287 166.452 290.509 166.596 290.693C166.744 290.873 166.942 291.009 167.19 291.101C167.442 291.193 167.72 291.239 168.024 291.239Z" fill="black"/>
<path d="M116.437 267.501L178.069 267.346L183.035 283.333L112.035 283.512L116.437 267.501Z" fill="#FFF5F5"/>
<path d="M203.514 106H367.703V357H203.514V106Z" fill="#FFC793"/>
<path d="M203.514 106H367.703V357H203.514V106Z" fill="#FFC793"/>
<path d="M203.514 106H367.703V357H203.514V106Z" fill="#FFC793"/>
<path d="M203.514 106H367.703V357H203.514V106Z" fill="#FFC793"/>
<path d="M203.514 106H367.703V357H203.514V106Z" stroke="white" stroke-width="12"/>
<line x1="203.514" y1="255" x2="362.838" y2="255" stroke="white" stroke-width="2"/>
<line x1="205.946" y1="185" x2="365.27" y2="185" stroke="white" stroke-width="2"/>
<rect x="234.22" y="196.5" width="38.223" height="45.0199" fill="#398761" stroke="#240000"/>
<line x1="253.376" y1="196.822" x2="253.376" y2="241.198" stroke="white"/>
<path d="M278.416 196L252.876 196.046L227.335 196.092" stroke="#240000" stroke-width="2"/>
<path d="M278.416 242.02L252.876 242.066L227.335 242.112" stroke="#240000" stroke-width="2"/>
<rect x="301.047" y="196.5" width="38.223" height="45.0199" fill="#398761" stroke="#240000"/>
<line x1="320.202" y1="196.822" x2="320.202" y2="241.198" stroke="white"/>
<path d="M345.243 196L319.702 196.046L294.162 196.092" stroke="#240000" stroke-width="2"/>
<path d="M345.243 242.02L319.702 242.066L294.162 242.112" stroke="#240000" stroke-width="2"/>
<rect x="234.22" y="126.5" width="38.223" height="45.0199" fill="#398761" stroke="#240000"/>
<line x1="253.376" y1="126.822" x2="253.376" y2="171.198" stroke="white"/>
<path d="M278.416 126L252.876 126.046L227.335 126.092" stroke="#240000" stroke-width="2"/>
<path d="M278.416 172.02L252.876 172.066L227.335 172.112" stroke="#240000" stroke-width="2"/>
<rect x="301.047" y="125.5" width="38.223" height="45.0199" fill="#398761" stroke="#240000"/>
<line x1="320.202" y1="125.822" x2="320.202" y2="170.198" stroke="white"/>
<path d="M345.243 125L319.702 125.046L294.162 125.092" stroke="#240000" stroke-width="2"/>
<path d="M345.243 171.02L319.702 171.066L294.162 171.112" stroke="#240000" stroke-width="2"/>
<path d="M244.149 296.5H325.851V350.5H244.149V296.5Z" fill="#733407" stroke="#240000"/>
<path d="M283.176 297.5V353.5" stroke="white"/>
<path d="M331.216 294H307.804H284.392H237.568" stroke="white" stroke-width="12"/>
<path d="M367.703 106H325.654L284.941 106H203.514" stroke="#B64506" stroke-width="12"/>
<path d="M365.275 90L324.471 90L284.963 90L205.946 90" stroke="white" stroke-width="12"/>
<path d="M375 99H330L285 99H195" stroke="white" stroke-width="10"/>
<path d="M265.802 296.006C265.038 296.006 264.446 295.964 264.026 295.88C263.918 293.876 263.82 292.664 263.732 292.244L263.552 292.286C263.456 292.306 263.364 292.328 263.276 292.352C263.188 292.372 263.094 292.402 262.994 292.442L262.988 292.238C262.988 292.17 263.062 292.108 263.21 292.052C263.358 291.992 263.536 291.946 263.744 291.914C263.956 291.878 264.144 291.86 264.308 291.86C264.488 291.86 264.694 291.892 264.926 291.956C265.162 292.02 265.364 292.116 265.532 292.244C265.7 292.368 265.784 292.516 265.784 292.688C265.784 292.884 265.708 293.058 265.556 293.21C265.408 293.358 265.214 293.464 264.974 293.528C265.326 293.588 265.654 293.696 265.958 293.852C266.262 294.004 266.506 294.194 266.69 294.422C266.874 294.646 266.966 294.888 266.966 295.148C266.966 295.448 266.85 295.666 266.618 295.802C266.386 295.938 266.114 296.006 265.802 296.006ZM265.646 295.664C265.942 295.664 266.17 295.632 266.33 295.568C266.49 295.5 266.57 295.356 266.57 295.136C266.57 294.904 266.5 294.71 266.36 294.554C266.224 294.394 266.062 294.27 265.874 294.182C265.69 294.09 265.46 293.994 265.184 293.894C264.964 293.818 264.8 293.752 264.692 293.696C264.588 293.636 264.536 293.57 264.536 293.498C264.536 293.446 264.562 293.406 264.614 293.378C264.666 293.35 264.758 293.31 264.89 293.258C265.07 293.198 265.21 293.134 265.31 293.066C265.414 292.994 265.466 292.894 265.466 292.766C265.466 292.578 265.352 292.434 265.124 292.334C264.896 292.23 264.64 292.178 264.356 292.178C264.276 292.178 264.18 292.186 264.068 292.202C264.172 292.874 264.244 293.44 264.284 293.9C264.324 294.356 264.352 294.886 264.368 295.49C264.424 295.546 264.566 295.588 264.794 295.616C265.022 295.644 265.306 295.66 265.646 295.664ZM270.205 296.006C270.157 296.006 270.123 295.994 270.103 295.97C270.087 295.946 270.079 295.912 270.079 295.868C270.079 295.78 270.099 295.644 270.139 295.46C270.183 295.292 270.205 295.154 270.205 295.046C270.205 294.734 270.181 294.496 270.133 294.332H269.947C269.783 294.332 269.569 294.328 269.305 294.32L268.741 294.314H267.931L267.943 294.548C267.943 294.732 267.973 294.962 268.033 295.238C268.053 295.35 268.071 295.464 268.087 295.58C268.107 295.692 268.117 295.794 268.117 295.886V295.94C268.077 295.98 268.035 296 267.991 296C267.887 296 267.805 295.878 267.745 295.634C267.685 295.386 267.655 295.088 267.655 294.74C267.655 294.6 267.661 294.462 267.673 294.326C267.585 294.322 267.525 294.308 267.493 294.284C267.461 294.256 267.445 294.214 267.445 294.158C267.445 294.114 267.457 294.084 267.481 294.068C267.509 294.052 267.557 294.04 267.625 294.032L267.619 293.87L267.637 293.594C267.665 293.142 267.707 292.774 267.763 292.49C267.819 292.206 267.939 291.96 268.123 291.752C268.307 291.544 268.583 291.44 268.951 291.44C269.371 291.44 269.699 291.666 269.935 292.118C270.171 292.57 270.331 293.074 270.415 293.63C270.499 294.186 270.541 294.664 270.541 295.064C270.541 295.208 270.537 295.334 270.529 295.442C270.521 295.546 270.505 295.676 270.481 295.832C270.389 295.948 270.297 296.006 270.205 296.006ZM270.109 294.098C270.033 293.358 269.897 292.778 269.701 292.358C269.505 291.934 269.211 291.722 268.819 291.722C268.527 291.722 268.311 291.858 268.171 292.13C268.035 292.398 267.953 292.686 267.925 292.994C267.897 293.302 267.883 293.648 267.883 294.032L270.109 294.098ZM274.106 296.204C274.078 296.236 274.038 296.252 273.986 296.252C273.798 296.252 273.498 296.08 273.086 295.736C272.678 295.388 272.316 295.042 272 294.698C272.02 294.806 272.058 294.988 272.114 295.244C272.138 295.344 272.158 295.44 272.174 295.532C272.194 295.624 272.204 295.696 272.204 295.748C272.204 295.864 272.162 295.934 272.078 295.958C272.058 296.01 272.004 295.88 271.916 295.568C271.832 295.256 271.752 294.896 271.676 294.488C271.604 294.076 271.568 293.732 271.568 293.456C271.568 293.316 271.58 293.202 271.604 293.114C271.656 293.074 271.7 293.054 271.736 293.054C271.808 293.054 271.858 293.116 271.886 293.24C271.914 293.36 271.94 293.55 271.964 293.81L271.976 293.948C272.132 293.94 272.344 293.906 272.612 293.846C272.884 293.786 273.126 293.704 273.338 293.6C273.554 293.492 273.662 293.364 273.662 293.216C273.662 293.136 273.604 293.048 273.488 292.952C273.376 292.852 273.202 292.768 272.966 292.7C272.734 292.632 272.448 292.598 272.108 292.598H271.916C271.688 292.598 271.51 292.636 271.382 292.712C271.254 292.784 271.19 292.94 271.19 293.18C271.13 293.18 271.076 293.142 271.028 293.066C270.98 292.99 270.956 292.92 270.956 292.856C270.956 292.608 271.074 292.446 271.31 292.37C271.55 292.294 271.894 292.256 272.342 292.256C272.578 292.256 272.824 292.294 273.08 292.37C273.336 292.446 273.552 292.566 273.728 292.73C273.904 292.89 273.992 293.09 273.992 293.33C273.992 293.494 273.918 293.63 273.77 293.738C273.626 293.846 273.456 293.93 273.26 293.99C273.064 294.05 272.824 294.112 272.54 294.176C272.304 294.228 272.15 294.266 272.078 294.29C272.386 294.706 272.682 295.03 272.966 295.262C273.254 295.494 273.554 295.704 273.866 295.892C273.974 295.956 274.05 296.004 274.094 296.036C274.138 296.068 274.16 296.098 274.16 296.126C274.16 296.154 274.142 296.18 274.106 296.204ZM278.713 293.528C278.713 293.7 278.721 293.868 278.737 294.032C278.757 294.192 278.787 294.418 278.827 294.71C278.903 295.202 278.941 295.594 278.941 295.886C278.941 295.946 278.929 295.982 278.905 295.994C278.881 296.006 278.853 296.012 278.821 296.012C278.789 296.012 278.767 296.012 278.755 296.012C278.699 296.012 278.655 296.006 278.623 295.994C278.591 295.978 278.565 295.942 278.545 295.886L278.419 294.254C278.407 294.09 278.391 293.76 278.371 293.264C278.199 293.464 278.029 293.616 277.861 293.72C277.693 293.82 277.521 293.87 277.345 293.87C277.093 293.87 276.841 293.692 276.589 293.336C276.601 293.396 276.607 293.476 276.607 293.576C276.607 293.676 276.607 293.734 276.607 293.75L276.601 295.712C276.601 295.752 276.579 295.784 276.535 295.808C276.495 295.828 276.453 295.838 276.409 295.838C276.353 295.838 276.313 295.818 276.289 295.778C276.269 295.734 276.253 295.676 276.241 295.604V294.764C276.241 294.636 276.245 294.492 276.253 294.332C276.261 294.172 276.267 294.06 276.271 293.996C276.291 293.716 276.301 293.462 276.301 293.234C276.301 293.166 276.289 293.102 276.265 293.042C276.241 292.978 276.205 292.908 276.157 292.832C276.109 292.756 276.073 292.69 276.049 292.634C276.029 292.578 276.019 292.518 276.019 292.454C276.019 292.378 276.057 292.34 276.133 292.34C276.253 292.34 276.351 292.384 276.427 292.472C276.503 292.556 276.585 292.684 276.673 292.856C276.749 292.996 276.815 293.106 276.871 293.186C276.927 293.266 276.999 293.336 277.087 293.396C277.175 293.452 277.281 293.48 277.405 293.48C277.585 293.488 277.733 293.454 277.849 293.378C277.965 293.298 278.053 293.202 278.113 293.09C278.173 292.978 278.231 292.842 278.287 292.682C278.335 292.55 278.377 292.458 278.413 292.406C278.449 292.35 278.493 292.328 278.545 292.34C278.665 292.332 278.725 292.442 278.725 292.67C278.725 292.862 278.723 293.004 278.719 293.096L278.713 293.528ZM281.331 296.006C280.999 296.006 280.701 295.938 280.437 295.802C280.177 295.666 279.973 295.474 279.825 295.226C279.677 294.978 279.603 294.692 279.603 294.368C279.603 294.148 279.647 293.946 279.735 293.762C279.823 293.578 279.951 293.432 280.119 293.324C280.287 293.212 280.485 293.156 280.713 293.156C281.145 293.156 281.529 293.23 281.865 293.378C282.205 293.522 282.469 293.73 282.657 294.002C282.849 294.274 282.945 294.588 282.945 294.944C282.945 295.18 282.857 295.378 282.681 295.538C282.509 295.698 282.297 295.816 282.045 295.892C281.797 295.968 281.559 296.006 281.331 296.006ZM281.217 295.694C281.617 295.694 281.953 295.634 282.225 295.514C282.501 295.394 282.639 295.194 282.639 294.914C282.639 294.426 282.451 294.06 282.075 293.816C281.699 293.568 281.219 293.444 280.635 293.444C280.355 293.444 280.157 293.528 280.041 293.696C279.929 293.86 279.873 294.084 279.873 294.368C279.873 294.604 279.929 294.824 280.041 295.028C280.157 295.228 280.317 295.39 280.521 295.514C280.725 295.634 280.957 295.694 281.217 295.694ZM286.153 296.204C286.125 296.236 286.085 296.252 286.033 296.252C285.845 296.252 285.545 296.08 285.133 295.736C284.725 295.388 284.363 295.042 284.047 294.698C284.067 294.806 284.105 294.988 284.161 295.244C284.185 295.344 284.205 295.44 284.221 295.532C284.241 295.624 284.251 295.696 284.251 295.748C284.251 295.864 284.209 295.934 284.125 295.958C284.105 296.01 284.051 295.88 283.963 295.568C283.879 295.256 283.799 294.896 283.723 294.488C283.651 294.076 283.615 293.732 283.615 293.456C283.615 293.316 283.627 293.202 283.651 293.114C283.703 293.074 283.747 293.054 283.783 293.054C283.855 293.054 283.905 293.116 283.933 293.24C283.961 293.36 283.987 293.55 284.011 293.81L284.023 293.948C284.179 293.94 284.391 293.906 284.659 293.846C284.931 293.786 285.173 293.704 285.385 293.6C285.601 293.492 285.709 293.364 285.709 293.216C285.709 293.136 285.651 293.048 285.535 292.952C285.423 292.852 285.249 292.768 285.013 292.7C284.781 292.632 284.495 292.598 284.155 292.598H283.963C283.735 292.598 283.557 292.636 283.429 292.712C283.301 292.784 283.237 292.94 283.237 293.18C283.177 293.18 283.123 293.142 283.075 293.066C283.027 292.99 283.003 292.92 283.003 292.856C283.003 292.608 283.121 292.446 283.357 292.37C283.597 292.294 283.941 292.256 284.389 292.256C284.625 292.256 284.871 292.294 285.127 292.37C285.383 292.446 285.599 292.566 285.775 292.73C285.951 292.89 286.039 293.09 286.039 293.33C286.039 293.494 285.965 293.63 285.817 293.738C285.673 293.846 285.503 293.93 285.307 293.99C285.111 294.05 284.871 294.112 284.587 294.176C284.351 294.228 284.197 294.266 284.125 294.29C284.433 294.706 284.729 295.03 285.013 295.262C285.301 295.494 285.601 295.704 285.913 295.892C286.021 295.956 286.097 296.004 286.141 296.036C286.185 296.068 286.207 296.098 286.207 296.126C286.207 296.154 286.189 296.18 286.153 296.204ZM287.754 296.006C287.422 296.006 287.18 295.944 287.028 295.82C286.88 295.696 286.806 295.472 286.806 295.148L286.89 293.804V292.514C286.89 292.414 286.91 292.35 286.95 292.322C286.99 292.29 287.078 292.274 287.214 292.274L287.622 292.286C288.134 292.314 288.634 292.328 289.122 292.328C289.226 292.328 289.308 292.358 289.368 292.418C289.432 292.478 289.464 292.56 289.464 292.664C289.464 292.684 289.458 292.7 289.446 292.712C289.434 292.724 289.42 292.728 289.404 292.724L289.122 292.616L287.244 292.664C287.22 292.664 287.206 292.662 287.202 292.658C287.218 292.69 287.226 292.718 287.226 292.742V293.804C287.41 293.816 287.588 293.822 287.76 293.822C288.056 293.822 288.382 293.808 288.738 293.78C288.774 293.776 288.828 293.772 288.9 293.768C288.976 293.76 289.018 293.76 289.026 293.768C289.05 293.792 289.068 293.814 289.08 293.834C289.092 293.854 289.1 293.882 289.104 293.918C289.116 294.006 288.982 294.064 288.702 294.092C288.426 294.12 288.056 294.142 287.592 294.158C287.436 294.158 287.306 294.162 287.202 294.17C287.154 294.29 287.13 294.482 287.13 294.746L287.136 295.1V295.49C287.2 295.542 287.27 295.576 287.346 295.592C287.422 295.608 287.546 295.616 287.718 295.616C287.898 295.616 288.074 295.606 288.246 295.586C288.422 295.566 288.526 295.554 288.558 295.55C288.894 295.51 289.144 295.49 289.308 295.49C289.404 295.49 289.47 295.5 289.506 295.52C289.546 295.536 289.566 295.566 289.566 295.61C289.566 295.874 289.03 296.006 287.958 296.006H287.754ZM292.736 293.012C292.852 293.012 292.972 293.126 293.096 293.354C293.22 293.582 293.324 293.844 293.408 294.14C293.492 294.432 293.534 294.65 293.534 294.794C293.534 295.014 293.486 295.212 293.39 295.388C293.298 295.56 293.166 295.696 292.994 295.796C292.822 295.892 292.626 295.94 292.406 295.94C292.102 295.94 291.838 295.858 291.614 295.694C291.394 295.53 291.218 295.342 291.086 295.13C290.954 294.914 290.818 294.656 290.678 294.356L290.594 294.176L290.606 295.628C290.606 295.716 290.59 295.802 290.558 295.886C290.53 295.966 290.48 296.006 290.408 296.006C290.336 296.006 290.284 295.966 290.252 295.886C290.22 295.802 290.204 295.72 290.204 295.64C290.204 295.384 290.224 295.016 290.264 294.536C290.304 294.056 290.324 293.698 290.324 293.462C290.324 293.406 290.32 293.348 290.312 293.288C290.304 293.228 290.298 293.186 290.294 293.162C290.274 293.054 290.264 292.958 290.264 292.874V292.85C290.276 292.85 290.312 292.842 290.372 292.826C290.436 292.806 290.474 292.796 290.486 292.796H290.546C290.698 293.48 290.922 294.112 291.218 294.692C291.518 295.268 291.928 295.556 292.448 295.556C292.692 295.556 292.876 295.484 293 295.34C293.128 295.192 293.192 294.994 293.192 294.746C293.192 294.534 293.158 294.34 293.09 294.164C293.022 293.984 292.92 293.764 292.784 293.504L292.622 293.186C292.61 293.166 292.604 293.146 292.604 293.126C292.604 293.094 292.616 293.068 292.64 293.048C292.664 293.024 292.696 293.012 292.736 293.012ZM290.606 295.628V295.616V295.628ZM296.953 296.006C296.905 296.006 296.871 295.994 296.851 295.97C296.835 295.946 296.827 295.912 296.827 295.868C296.827 295.78 296.847 295.644 296.887 295.46C296.931 295.292 296.953 295.154 296.953 295.046C296.953 294.734 296.929 294.496 296.881 294.332H296.695C296.531 294.332 296.317 294.328 296.053 294.32L295.489 294.314H294.679L294.691 294.548C294.691 294.732 294.721 294.962 294.781 295.238C294.801 295.35 294.819 295.464 294.835 295.58C294.855 295.692 294.865 295.794 294.865 295.886V295.94C294.825 295.98 294.783 296 294.739 296C294.635 296 294.553 295.878 294.493 295.634C294.433 295.386 294.403 295.088 294.403 294.74C294.403 294.6 294.409 294.462 294.421 294.326C294.333 294.322 294.273 294.308 294.241 294.284C294.209 294.256 294.193 294.214 294.193 294.158C294.193 294.114 294.205 294.084 294.229 294.068C294.257 294.052 294.305 294.04 294.373 294.032L294.367 293.87L294.385 293.594C294.413 293.142 294.455 292.774 294.511 292.49C294.567 292.206 294.687 291.96 294.871 291.752C295.055 291.544 295.331 291.44 295.699 291.44C296.119 291.44 296.447 291.666 296.683 292.118C296.919 292.57 297.079 293.074 297.163 293.63C297.247 294.186 297.289 294.664 297.289 295.064C297.289 295.208 297.285 295.334 297.277 295.442C297.269 295.546 297.253 295.676 297.229 295.832C297.137 295.948 297.045 296.006 296.953 296.006ZM296.857 294.098C296.781 293.358 296.645 292.778 296.449 292.358C296.253 291.934 295.959 291.722 295.567 291.722C295.275 291.722 295.059 291.858 294.919 292.13C294.783 292.398 294.701 292.686 294.673 292.994C294.645 293.302 294.631 293.648 294.631 294.032L296.857 294.098Z" fill="black"/>
<path d="M243.397 274.169L324.359 274.013L330.879 289L237.611 289.181L243.397 274.169Z" fill="#FFF5F5"/>
<path d="M365 58H447V357H365V58Z" fill="#FFDBCF"/>
<path d="M365 58H447V357H365V58Z" fill="#FFDBCF"/>
<path d="M365 58H447V357H365V58Z" fill="#FFDBCF"/>
<path d="M365 58H447V357H365V58Z" fill="#FFDBCF"/>
<path d="M365 58H447V357H365V58Z" stroke="white" stroke-width="12"/>
<line x1="366" y1="272" x2="445.662" y2="272" stroke="white" stroke-width="2"/>
<line x1="368" y1="134" x2="447.662" y2="134" stroke="white" stroke-width="2"/>
<line x1="366" y1="206" x2="445.662" y2="206" stroke="white" stroke-width="2"/>
<rect x="395.25" y="80.5" width="22.0357" height="38.9203" fill="#398761" stroke="#240000"/>
<line x1="406.5" y1="80.7129" x2="406.5" y2="119.207" stroke="white"/>
<path d="M421 80L406 80.0399L391 80.0797" stroke="#240000" stroke-width="2"/>
<path d="M421 119.92L406 119.96L391 120" stroke="#240000" stroke-width="2"/>
<rect x="395.25" y="151.5" width="22.0357" height="38.9203" fill="#398761" stroke="#240000"/>
<line x1="406.5" y1="151.713" x2="406.5" y2="190.207" stroke="white"/>
<path d="M421 151L406 151.04L391 151.08" stroke="#240000" stroke-width="2"/>
<path d="M421 190.92L406 190.96L391 191" stroke="#240000" stroke-width="2"/>
<rect x="395.25" y="222.5" width="22.0357" height="38.9203" fill="#398761" stroke="#240000"/>
<line x1="406.5" y1="222.713" x2="406.5" y2="261.207" stroke="white"/>
<path d="M421 222L406 222.04L391 222.08" stroke="#240000" stroke-width="2"/>
<path d="M421 261.92L406 261.96L391 262" stroke="#240000" stroke-width="2"/>
<path d="M384.915 286.169L425.396 286.013L428.656 301L382.021 301.181L384.915 286.169Z" fill="#FFF5F5"/>
<path d="M386.5 304.5H425.5V350.5H386.5V304.5Z" fill="#733407" stroke="#240000"/>
<path d="M406 296V352" stroke="white"/>
<path d="M428.824 304H417.118H405.412H382" stroke="white" stroke-width="10"/>
<path d="M447.095 58L426.07 58H405.714L365 58" stroke="#B64506" stroke-width="12"/>
<path d="M445.664 45L425.263 45L405.508 45L366 45" stroke="white" stroke-width="12"/>
<path d="M451 53L428.5 53H406L361 53" stroke="white" stroke-width="10"/>
<path d="M397.054 302.528C397.054 302.7 397.062 302.868 397.078 303.032C397.098 303.192 397.128 303.418 397.168 303.71C397.244 304.202 397.282 304.594 397.282 304.886C397.282 304.946 397.27 304.982 397.246 304.994C397.222 305.006 397.194 305.012 397.162 305.012C397.13 305.012 397.108 305.012 397.096 305.012C397.04 305.012 396.996 305.006 396.964 304.994C396.932 304.978 396.906 304.942 396.886 304.886L396.76 303.254C396.748 303.09 396.732 302.76 396.712 302.264C396.54 302.464 396.37 302.616 396.202 302.72C396.034 302.82 395.862 302.87 395.686 302.87C395.434 302.87 395.182 302.692 394.93 302.336C394.942 302.396 394.948 302.476 394.948 302.576C394.948 302.676 394.948 302.734 394.948 302.75L394.942 304.712C394.942 304.752 394.92 304.784 394.876 304.808C394.836 304.828 394.794 304.838 394.75 304.838C394.694 304.838 394.654 304.818 394.63 304.778C394.61 304.734 394.594 304.676 394.582 304.604V303.764C394.582 303.636 394.586 303.492 394.594 303.332C394.602 303.172 394.608 303.06 394.612 302.996C394.632 302.716 394.642 302.462 394.642 302.234C394.642 302.166 394.63 302.102 394.606 302.042C394.582 301.978 394.546 301.908 394.498 301.832C394.45 301.756 394.414 301.69 394.39 301.634C394.37 301.578 394.36 301.518 394.36 301.454C394.36 301.378 394.398 301.34 394.474 301.34C394.594 301.34 394.692 301.384 394.768 301.472C394.844 301.556 394.926 301.684 395.014 301.856C395.09 301.996 395.156 302.106 395.212 302.186C395.268 302.266 395.34 302.336 395.428 302.396C395.516 302.452 395.622 302.48 395.746 302.48C395.926 302.488 396.074 302.454 396.19 302.378C396.306 302.298 396.394 302.202 396.454 302.09C396.514 301.978 396.572 301.842 396.628 301.682C396.676 301.55 396.718 301.458 396.754 301.406C396.79 301.35 396.834 301.328 396.886 301.34C397.006 301.332 397.066 301.442 397.066 301.67C397.066 301.862 397.064 302.004 397.06 302.096L397.054 302.528ZM398.641 305C398.589 305.02 398.539 305.008 398.491 304.964C398.447 304.92 398.423 304.858 398.419 304.778C398.403 304.662 398.385 304.52 398.365 304.352C398.349 304.184 398.337 304.06 398.329 303.98C398.321 303.9 398.303 303.746 398.275 303.518C398.251 303.286 398.225 303.086 398.197 302.918C398.189 302.862 398.163 302.762 398.119 302.618C398.003 302.206 397.945 301.908 397.945 301.724C397.973 301.684 398.001 301.664 398.029 301.664C398.133 301.664 398.241 301.872 398.353 302.288C398.465 302.704 398.559 303.174 398.635 303.698C398.715 304.218 398.755 304.574 398.755 304.766C398.755 304.774 398.755 304.8 398.755 304.844C398.755 304.884 398.745 304.918 398.725 304.946C398.709 304.974 398.681 304.992 398.641 305ZM401.253 304.772C401.581 304.772 401.835 304.726 402.015 304.634C402.195 304.542 402.285 304.408 402.285 304.232C402.285 304.076 402.231 303.942 402.123 303.83C402.015 303.714 401.881 303.616 401.721 303.536C401.561 303.456 401.343 303.362 401.067 303.254C401.043 303.246 400.985 303.224 400.893 303.188C400.517 303.036 400.227 302.884 400.023 302.732C399.823 302.58 399.723 302.384 399.723 302.144C399.723 301.876 399.829 301.674 400.041 301.538C400.253 301.402 400.525 301.334 400.857 301.334C401.101 301.334 401.325 301.366 401.529 301.43C401.737 301.49 401.901 301.574 402.021 301.682C402.145 301.79 402.207 301.912 402.207 302.048C402.159 302.072 402.113 302.084 402.069 302.084C402.021 302.084 401.971 302.074 401.919 302.054C401.871 302.03 401.799 301.992 401.703 301.94C401.547 301.856 401.401 301.79 401.265 301.742C401.129 301.69 400.969 301.664 400.785 301.664C400.553 301.664 400.365 301.704 400.221 301.784C400.077 301.864 400.005 301.976 400.005 302.12C400.005 302.232 400.053 302.334 400.149 302.426C400.249 302.518 400.373 302.6 400.521 302.672C400.673 302.74 400.875 302.822 401.127 302.918C401.447 303.042 401.711 303.158 401.919 303.266C402.127 303.374 402.303 303.512 402.447 303.68C402.595 303.844 402.669 304.04 402.669 304.268C402.669 304.536 402.541 304.744 402.285 304.892C402.029 305.036 401.711 305.108 401.331 305.108C401.031 305.108 400.735 305.064 400.443 304.976C400.151 304.888 399.901 304.758 399.693 304.586C399.485 304.41 399.353 304.2 399.297 303.956C399.297 303.848 399.327 303.756 399.387 303.68C399.447 303.6 399.521 303.56 399.609 303.56C399.609 303.82 399.681 304.042 399.825 304.226C399.973 304.406 400.171 304.542 400.419 304.634C400.671 304.726 400.949 304.772 401.253 304.772ZM405.102 304.772C405.43 304.772 405.684 304.726 405.864 304.634C406.044 304.542 406.134 304.408 406.134 304.232C406.134 304.076 406.08 303.942 405.972 303.83C405.864 303.714 405.73 303.616 405.57 303.536C405.41 303.456 405.192 303.362 404.916 303.254C404.892 303.246 404.834 303.224 404.742 303.188C404.366 303.036 404.076 302.884 403.872 302.732C403.672 302.58 403.572 302.384 403.572 302.144C403.572 301.876 403.678 301.674 403.89 301.538C404.102 301.402 404.374 301.334 404.706 301.334C404.95 301.334 405.174 301.366 405.378 301.43C405.586 301.49 405.75 301.574 405.87 301.682C405.994 301.79 406.056 301.912 406.056 302.048C406.008 302.072 405.962 302.084 405.918 302.084C405.87 302.084 405.82 302.074 405.768 302.054C405.72 302.03 405.648 301.992 405.552 301.94C405.396 301.856 405.25 301.79 405.114 301.742C404.978 301.69 404.818 301.664 404.634 301.664C404.402 301.664 404.214 301.704 404.07 301.784C403.926 301.864 403.854 301.976 403.854 302.12C403.854 302.232 403.902 302.334 403.998 302.426C404.098 302.518 404.222 302.6 404.37 302.672C404.522 302.74 404.724 302.822 404.976 302.918C405.296 303.042 405.56 303.158 405.768 303.266C405.976 303.374 406.152 303.512 406.296 303.68C406.444 303.844 406.518 304.04 406.518 304.268C406.518 304.536 406.39 304.744 406.134 304.892C405.878 305.036 405.56 305.108 405.18 305.108C404.88 305.108 404.584 305.064 404.292 304.976C404 304.888 403.75 304.758 403.542 304.586C403.334 304.41 403.202 304.2 403.146 303.956C403.146 303.848 403.176 303.756 403.236 303.68C403.296 303.6 403.37 303.56 403.458 303.56C403.458 303.82 403.53 304.042 403.674 304.226C403.822 304.406 404.02 304.542 404.268 304.634C404.52 304.726 404.798 304.772 405.102 304.772ZM408.784 305.006C408.452 305.006 408.154 304.938 407.89 304.802C407.63 304.666 407.426 304.474 407.278 304.226C407.13 303.978 407.056 303.692 407.056 303.368C407.056 303.148 407.1 302.946 407.188 302.762C407.276 302.578 407.404 302.432 407.572 302.324C407.74 302.212 407.938 302.156 408.166 302.156C408.598 302.156 408.982 302.23 409.318 302.378C409.658 302.522 409.922 302.73 410.11 303.002C410.302 303.274 410.398 303.588 410.398 303.944C410.398 304.18 410.31 304.378 410.134 304.538C409.962 304.698 409.75 304.816 409.498 304.892C409.25 304.968 409.012 305.006 408.784 305.006ZM408.67 304.694C409.07 304.694 409.406 304.634 409.678 304.514C409.954 304.394 410.092 304.194 410.092 303.914C410.092 303.426 409.904 303.06 409.528 302.816C409.152 302.568 408.672 302.444 408.088 302.444C407.808 302.444 407.61 302.528 407.494 302.696C407.382 302.86 407.326 303.084 407.326 303.368C407.326 303.604 407.382 303.824 407.494 304.028C407.61 304.228 407.77 304.39 407.974 304.514C408.178 304.634 408.41 304.694 408.67 304.694ZM413.591 302.012C413.707 302.012 413.827 302.126 413.951 302.354C414.075 302.582 414.179 302.844 414.263 303.14C414.347 303.432 414.389 303.65 414.389 303.794C414.389 304.014 414.341 304.212 414.245 304.388C414.153 304.56 414.021 304.696 413.849 304.796C413.677 304.892 413.481 304.94 413.261 304.94C412.957 304.94 412.693 304.858 412.469 304.694C412.249 304.53 412.073 304.342 411.941 304.13C411.809 303.914 411.673 303.656 411.533 303.356L411.449 303.176L411.461 304.628C411.461 304.716 411.445 304.802 411.413 304.886C411.385 304.966 411.335 305.006 411.263 305.006C411.191 305.006 411.139 304.966 411.107 304.886C411.075 304.802 411.059 304.72 411.059 304.64C411.059 304.384 411.079 304.016 411.119 303.536C411.159 303.056 411.179 302.698 411.179 302.462C411.179 302.406 411.175 302.348 411.167 302.288C411.159 302.228 411.153 302.186 411.149 302.162C411.129 302.054 411.119 301.958 411.119 301.874V301.85C411.131 301.85 411.167 301.842 411.227 301.826C411.291 301.806 411.329 301.796 411.341 301.796H411.401C411.553 302.48 411.777 303.112 412.073 303.692C412.373 304.268 412.783 304.556 413.303 304.556C413.547 304.556 413.731 304.484 413.855 304.34C413.983 304.192 414.047 303.994 414.047 303.746C414.047 303.534 414.013 303.34 413.945 303.164C413.877 302.984 413.775 302.764 413.639 302.504L413.477 302.186C413.465 302.166 413.459 302.146 413.459 302.126C413.459 302.094 413.471 302.068 413.495 302.048C413.519 302.024 413.551 302.012 413.591 302.012ZM411.461 304.628V304.616V304.628ZM415.744 305C415.692 305.02 415.642 305.008 415.594 304.964C415.55 304.92 415.526 304.858 415.522 304.778C415.506 304.662 415.488 304.52 415.468 304.352C415.452 304.184 415.44 304.06 415.432 303.98C415.424 303.9 415.406 303.746 415.378 303.518C415.354 303.286 415.328 303.086 415.3 302.918C415.292 302.862 415.266 302.762 415.222 302.618C415.106 302.206 415.048 301.908 415.048 301.724C415.076 301.684 415.104 301.664 415.132 301.664C415.236 301.664 415.344 301.872 415.456 302.288C415.568 302.704 415.662 303.174 415.738 303.698C415.818 304.218 415.858 304.574 415.858 304.766C415.858 304.774 415.858 304.8 415.858 304.844C415.858 304.884 415.848 304.918 415.828 304.946C415.812 304.974 415.784 304.992 415.744 305Z" fill="black"/>
<path d="M3 153H85V358H3V153Z" fill="#FF976A"/>
<path d="M3 153H85V358H3V153Z" fill="#FF976A"/>
<path d="M3 153H85V358H3V153Z" fill="#FF976A"/>
<path d="M3 153H85V358H3V153Z" fill="#FF976A"/>
<path d="M3 153H85V358H3V153Z" stroke="white" stroke-width="12"/>
<line x1="4" y1="286.192" x2="83.6622" y2="286.192" stroke="white" stroke-width="2"/>
<line x1="5" y1="223" x2="84.6622" y2="223" stroke="white" stroke-width="2"/>
<rect x="33.25" y="173.5" width="22.0357" height="32.6507" fill="#398761" stroke="#240000"/>
<line x1="44.5" y1="173.601" x2="44.5" y2="206.05" stroke="white"/>
<path d="M59 173L44 173.032L28.9999 173.064" stroke="#240000" stroke-width="2"/>
<path d="M59 206.651L44 206.684L28.9999 206.718" stroke="#240000" stroke-width="2"/>
<rect x="32.25" y="238.5" width="22.0357" height="32.6507" fill="#398761" stroke="#240000"/>
<line x1="43.5" y1="238.601" x2="43.5" y2="271.05" stroke="white"/>
<path d="M58 238L43 238.032L27.9999 238.064" stroke="#240000" stroke-width="2"/>
<path d="M58 271.651L43 271.684L27.9999 271.718" stroke="#240000" stroke-width="2"/>
<path d="M22.9146 298.293L63.3956 298.161L66.6556 310.795L20.0215 310.947L22.9146 298.293Z" fill="#FFF5F5"/>
<path d="M24.5 313.824H63.5V351.444H24.5V313.824Z" fill="#733407" stroke="#240000"/>
<path d="M44 306.58V353.785" stroke="white"/>
<path d="M66.8243 313.324H55.1183H43.4122H20" stroke="white" stroke-width="10"/>
<path d="M85.0946 153H64.0704H43.7136H3.00001" stroke="#B64506" stroke-width="12"/>
<path d="M82.6645 138L62.2626 138H42.5084L3.00001 138" stroke="white" stroke-width="12"/>
<path d="M34.224 315.64C34.224 315.592 34.228 315.556 34.236 315.532C34.248 315.504 34.274 315.49 34.314 315.49C34.35 315.49 34.39 315.498 34.434 315.514C34.482 315.53 34.528 315.548 34.572 315.568C34.684 315.616 34.784 315.652 34.872 315.676C34.964 315.7 35.078 315.712 35.214 315.712C35.71 315.712 36.082 315.594 36.33 315.358C36.582 315.122 36.708 314.814 36.708 314.434C36.708 314.094 36.612 313.796 36.42 313.54C36.228 313.28 35.984 313.076 35.688 312.928C35.396 312.78 35.098 312.692 34.794 312.664L35.136 315.202C35.136 315.27 35.126 315.326 35.106 315.37C35.09 315.414 35.05 315.436 34.986 315.436C34.97 315.444 34.94 315.336 34.896 315.112C34.852 314.888 34.792 314.558 34.716 314.122C34.628 313.614 34.56 313.238 34.512 312.994C34.464 312.746 34.426 312.604 34.398 312.568C34.066 312.568 33.794 312.586 33.582 312.622C33.37 312.654 33.208 312.692 33.096 312.736C32.984 312.78 32.938 312.802 32.958 312.802C32.938 312.794 32.924 312.782 32.916 312.766C32.908 312.746 32.902 312.718 32.898 312.682C32.89 312.646 32.884 312.62 32.88 312.604C32.88 312.508 32.966 312.432 33.138 312.376C33.31 312.32 33.49 312.282 33.678 312.262C33.87 312.242 33.998 312.232 34.062 312.232C34.49 312.232 34.936 312.32 35.4 312.496C35.864 312.668 36.254 312.922 36.57 313.258C36.886 313.594 37.044 313.992 37.044 314.452C37.044 314.796 36.958 315.09 36.786 315.334C36.614 315.574 36.388 315.756 36.108 315.88C35.832 316.004 35.536 316.066 35.22 316.066C34.964 316.066 34.734 316.026 34.53 315.946C34.326 315.866 34.224 315.764 34.224 315.64ZM40.4663 316.006C40.4183 316.006 40.3843 315.994 40.3643 315.97C40.3483 315.946 40.3403 315.912 40.3403 315.868C40.3403 315.78 40.3603 315.644 40.4003 315.46C40.4443 315.292 40.4663 315.154 40.4663 315.046C40.4663 314.734 40.4423 314.496 40.3943 314.332H40.2083C40.0443 314.332 39.8303 314.328 39.5663 314.32L39.0023 314.314H38.1923L38.2043 314.548C38.2043 314.732 38.2343 314.962 38.2943 315.238C38.3143 315.35 38.3323 315.464 38.3483 315.58C38.3683 315.692 38.3783 315.794 38.3783 315.886V315.94C38.3383 315.98 38.2963 316 38.2523 316C38.1483 316 38.0663 315.878 38.0063 315.634C37.9463 315.386 37.9163 315.088 37.9163 314.74C37.9163 314.6 37.9223 314.462 37.9343 314.326C37.8463 314.322 37.7863 314.308 37.7543 314.284C37.7223 314.256 37.7063 314.214 37.7063 314.158C37.7063 314.114 37.7183 314.084 37.7423 314.068C37.7703 314.052 37.8183 314.04 37.8863 314.032L37.8803 313.87L37.8983 313.594C37.9263 313.142 37.9683 312.774 38.0243 312.49C38.0803 312.206 38.2003 311.96 38.3843 311.752C38.5683 311.544 38.8443 311.44 39.2123 311.44C39.6323 311.44 39.9603 311.666 40.1963 312.118C40.4323 312.57 40.5923 313.074 40.6763 313.63C40.7603 314.186 40.8023 314.664 40.8023 315.064C40.8023 315.208 40.7983 315.334 40.7903 315.442C40.7823 315.546 40.7663 315.676 40.7423 315.832C40.6503 315.948 40.5583 316.006 40.4663 316.006ZM40.3703 314.098C40.2943 313.358 40.1583 312.778 39.9623 312.358C39.7663 311.934 39.4723 311.722 39.0803 311.722C38.7883 311.722 38.5723 311.858 38.4323 312.13C38.2963 312.398 38.2143 312.686 38.1863 312.994C38.1583 313.302 38.1443 313.648 38.1443 314.032L40.3703 314.098ZM44.3195 316.006C43.8475 316.006 43.5115 315.794 43.3115 315.37C43.1155 314.946 43.0015 314.394 42.9695 313.714C42.9655 313.654 42.9635 313.568 42.9635 313.456C42.9635 313.228 42.9915 313.052 43.0475 312.928C43.1075 312.8 43.2175 312.736 43.3775 312.736C43.4215 312.736 43.4555 312.748 43.4795 312.772C43.5035 312.792 43.5155 312.82 43.5155 312.856C43.5155 312.932 43.4695 313.006 43.3775 313.078C43.3255 313.078 43.2895 313.112 43.2695 313.18C43.2535 313.248 43.2455 313.352 43.2455 313.492C43.2455 313.62 43.2475 313.722 43.2515 313.798C43.2755 314.394 43.3855 314.866 43.5815 315.214C43.7775 315.558 44.0495 315.73 44.3975 315.73C44.5975 315.73 44.7775 315.682 44.9375 315.586C45.0975 315.49 45.2215 315.362 45.3095 315.202C45.4015 315.038 45.4475 314.862 45.4475 314.674C45.4075 314.346 45.3755 314.116 45.3515 313.984C45.3275 313.852 45.2835 313.638 45.2195 313.342C45.1915 313.226 45.1775 313.124 45.1775 313.036C45.1775 312.944 45.1955 312.88 45.2315 312.844C45.2675 312.808 45.3215 312.79 45.3935 312.79C45.4375 312.79 45.4715 312.816 45.4955 312.868C45.5195 312.92 45.5415 313.022 45.5615 313.174C45.5815 313.326 45.6075 313.574 45.6395 313.918C45.6595 314.114 45.6975 314.306 45.7535 314.494C45.8135 314.682 45.8915 314.898 45.9875 315.142C45.9955 315.166 46.0175 315.226 46.0535 315.322C46.0895 315.414 46.1155 315.49 46.1315 315.55C46.1475 315.61 46.1555 315.658 46.1555 315.694C46.1555 315.786 46.1075 315.832 46.0115 315.832C45.9795 315.832 45.8615 315.586 45.6575 315.094C45.6135 315.274 45.5235 315.434 45.3875 315.574C45.2515 315.71 45.0895 315.816 44.9015 315.892C44.7135 315.968 44.5195 316.006 44.3195 316.006ZM49.6285 316.414C49.4925 316.414 49.4005 316.342 49.3525 316.198C49.3085 316.058 49.2865 315.904 49.2865 315.736L49.3045 315.562C49.1085 315.686 48.8765 315.784 48.6085 315.856C48.3445 315.928 48.0665 315.964 47.7745 315.964C47.5625 315.964 47.3745 315.916 47.2105 315.82C47.0465 315.72 46.9185 315.586 46.8265 315.418C46.7385 315.246 46.6945 315.052 46.6945 314.836C46.6945 314.508 46.8225 314.198 47.0785 313.906C47.3345 313.61 47.6485 313.37 48.0205 313.186C48.3965 312.998 48.7445 312.892 49.0645 312.868C49.2245 312.852 49.3605 312.888 49.4725 312.976C49.5845 313.06 49.6405 313.178 49.6405 313.33C49.5565 313.33 49.4565 313.308 49.3405 313.264C49.3245 313.26 49.2825 313.248 49.2145 313.228C49.1465 313.208 49.0765 313.198 49.0045 313.198C48.7205 313.198 48.4185 313.28 48.0985 313.444C47.7825 313.608 47.5165 313.826 47.3005 314.098C47.0885 314.366 46.9825 314.648 46.9825 314.944C46.9825 315.084 47.0245 315.206 47.1085 315.31C47.1965 315.41 47.3045 315.488 47.4325 315.544C47.5645 315.596 47.6965 315.622 47.8285 315.622C48.1445 315.622 48.4045 315.61 48.6085 315.586C48.8125 315.558 48.9885 315.488 49.1365 315.376C49.2845 315.26 49.3585 315.084 49.3585 314.848C49.3585 314.736 49.3345 314.658 49.2865 314.614H48.2185C48.1625 314.614 48.1085 314.586 48.0565 314.53C48.0085 314.474 47.9845 314.418 47.9845 314.362C47.9845 314.262 48.0145 314.212 48.0745 314.212C48.1225 314.212 48.1985 314.232 48.3025 314.272C48.3985 314.316 48.4805 314.338 48.5485 314.338C48.6365 314.338 48.7725 314.326 48.9565 314.302C48.9885 314.298 49.0465 314.292 49.1305 314.284C49.2145 314.276 49.2905 314.272 49.3585 314.272C49.4265 314.272 49.4925 314.302 49.5565 314.362C49.6245 314.418 49.6565 314.482 49.6525 314.554L49.6165 315.94C49.6445 315.996 49.6925 316.044 49.7605 316.084C49.7845 316.096 49.8045 316.11 49.8205 316.126C49.8365 316.146 49.8465 316.166 49.8505 316.186C49.8705 316.23 49.8505 316.278 49.7905 316.33C49.7305 316.386 49.6765 316.414 49.6285 316.414ZM52.0026 316.006C51.6706 316.006 51.3726 315.938 51.1086 315.802C50.8486 315.666 50.6446 315.474 50.4966 315.226C50.3486 314.978 50.2746 314.692 50.2746 314.368C50.2746 314.148 50.3186 313.946 50.4066 313.762C50.4946 313.578 50.6226 313.432 50.7906 313.324C50.9586 313.212 51.1566 313.156 51.3846 313.156C51.8166 313.156 52.2006 313.23 52.5366 313.378C52.8766 313.522 53.1406 313.73 53.3286 314.002C53.5206 314.274 53.6166 314.588 53.6166 314.944C53.6166 315.18 53.5286 315.378 53.3526 315.538C53.1806 315.698 52.9686 315.816 52.7166 315.892C52.4686 315.968 52.2306 316.006 52.0026 316.006ZM51.8886 315.694C52.2886 315.694 52.6246 315.634 52.8966 315.514C53.1726 315.394 53.3106 315.194 53.3106 314.914C53.3106 314.426 53.1226 314.06 52.7466 313.816C52.3706 313.568 51.8906 313.444 51.3066 313.444C51.0266 313.444 50.8286 313.528 50.7126 313.696C50.6006 313.86 50.5446 314.084 50.5446 314.368C50.5446 314.604 50.6006 314.824 50.7126 315.028C50.8286 315.228 50.9886 315.39 51.1926 315.514C51.3966 315.634 51.6286 315.694 51.8886 315.694Z" fill="black"/>
<path d="M89 147H66.5H44L-1 147" stroke="white" stroke-width="10"/>
<path d="M444 152H526V357H444V152Z" fill="#FF976A"/>
<path d="M444 152H526V357H444V152Z" fill="#FF976A"/>
<path d="M444 152H526V357H444V152Z" fill="#FF976A"/>
<path d="M444 152H526V357H444V152Z" fill="#FF976A"/>
<path d="M444 152H526V357H444V152Z" stroke="white" stroke-width="12"/>
<line x1="445" y1="285.192" x2="524.662" y2="285.192" stroke="white" stroke-width="2"/>
<line x1="446" y1="222" x2="525.662" y2="222" stroke="white" stroke-width="2"/>
<rect x="474.25" y="172.5" width="22.0357" height="32.6507" fill="#398761" stroke="#240000"/>
<line x1="485.5" y1="172.601" x2="485.5" y2="205.05" stroke="white"/>
<path d="M500 172L485 172.032L470 172.064" stroke="#240000" stroke-width="2"/>
<path d="M500 205.651L485 205.684L470 205.718" stroke="#240000" stroke-width="2"/>
<rect x="473.25" y="237.5" width="22.0357" height="32.6507" fill="#398761" stroke="#240000"/>
<line x1="484.5" y1="237.601" x2="484.5" y2="270.05" stroke="white"/>
<path d="M499 237L484 237.032L469 237.064" stroke="#240000" stroke-width="2"/>
<path d="M499 270.651L484 270.684L469 270.718" stroke="#240000" stroke-width="2"/>
<path d="M463.915 297.293L504.396 297.161L507.656 309.795L461.021 309.947L463.915 297.293Z" fill="#FFF5F5"/>
<path d="M465.5 312.824H504.5V350.444H465.5V312.824Z" fill="#733407" stroke="#240000"/>
<path d="M485 305.58V352.785" stroke="white"/>
<path d="M507.824 312.324H496.118H484.412H461" stroke="white" stroke-width="10"/>
<path d="M526.095 152H505.07H484.714H444" stroke="#B64506" stroke-width="12"/>
<path d="M523.664 137L503.263 137H483.508L444 137" stroke="white" stroke-width="12"/>
<path d="M530 146H507.5H485L440 146" stroke="white" stroke-width="10"/>
<path d="M475.996 315C475.944 315.02 475.894 315.008 475.846 314.964C475.802 314.92 475.778 314.858 475.774 314.778C475.758 314.662 475.74 314.52 475.72 314.352C475.704 314.184 475.692 314.06 475.684 313.98C475.676 313.9 475.658 313.746 475.63 313.518C475.606 313.286 475.58 313.086 475.552 312.918C475.544 312.862 475.518 312.762 475.474 312.618C475.358 312.206 475.3 311.908 475.3 311.724C475.328 311.684 475.356 311.664 475.384 311.664C475.488 311.664 475.596 311.872 475.708 312.288C475.82 312.704 475.914 313.174 475.99 313.698C476.07 314.218 476.11 314.574 476.11 314.766C476.11 314.774 476.11 314.8 476.11 314.844C476.11 314.884 476.1 314.918 476.08 314.946C476.064 314.974 476.036 314.992 475.996 315ZM477.936 314.928C477.872 314.92 477.812 314.916 477.756 314.916C477.704 314.912 477.668 314.91 477.648 314.91C477.632 314.906 477.624 314.898 477.624 314.886C477.596 314.758 477.576 314.646 477.564 314.55C477.552 314.45 477.544 314.358 477.54 314.274C477.536 314.154 477.526 314.036 477.51 313.92C477.498 313.8 477.47 313.642 477.426 313.446C477.202 313.482 477.052 313.5 476.976 313.5C476.896 313.5 476.836 313.486 476.796 313.458C476.756 313.426 476.736 313.376 476.736 313.308C476.736 313.268 476.758 313.248 476.802 313.248L476.982 313.23C477.01 313.226 477.138 313.21 477.366 313.182C477.358 313.066 477.342 312.828 477.318 312.468C477.306 312.18 477.288 311.95 477.264 311.778L476.514 311.844C476.458 311.88 476.414 311.898 476.382 311.898C476.334 311.862 476.304 311.816 476.292 311.76C476.388 311.656 476.618 311.57 476.982 311.502C477.35 311.434 477.748 311.4 478.176 311.4C478.712 311.4 479.172 311.458 479.556 311.574C479.94 311.686 480.148 311.86 480.18 312.096C480.056 312.096 479.936 312.082 479.82 312.054C479.704 312.026 479.558 311.984 479.382 311.928C479.158 311.852 478.952 311.794 478.764 311.754C478.58 311.714 478.372 311.694 478.14 311.694C477.992 311.694 477.83 311.706 477.654 311.73C477.654 312.102 477.664 312.572 477.684 313.14L477.894 313.122C478.534 313.07 478.908 313.044 479.016 313.044C479.068 313.044 479.104 313.048 479.124 313.056C479.144 313.06 479.16 313.068 479.172 313.08C479.176 313.2 479.062 313.286 478.83 313.338C478.598 313.386 478.23 313.42 477.726 313.44C477.746 313.636 477.784 313.892 477.84 314.208C477.892 314.504 477.924 314.744 477.936 314.928ZM481.827 314.928C481.763 314.92 481.703 314.916 481.647 314.916C481.595 314.912 481.559 314.91 481.539 314.91C481.523 314.906 481.515 314.898 481.515 314.886C481.487 314.758 481.467 314.646 481.455 314.55C481.443 314.45 481.435 314.358 481.431 314.274C481.427 314.154 481.417 314.036 481.401 313.92C481.389 313.8 481.361 313.642 481.317 313.446C481.093 313.482 480.943 313.5 480.867 313.5C480.787 313.5 480.727 313.486 480.687 313.458C480.647 313.426 480.627 313.376 480.627 313.308C480.627 313.268 480.649 313.248 480.693 313.248L480.873 313.23C480.901 313.226 481.029 313.21 481.257 313.182C481.249 313.066 481.233 312.828 481.209 312.468C481.197 312.18 481.179 311.95 481.155 311.778L480.405 311.844C480.349 311.88 480.305 311.898 480.273 311.898C480.225 311.862 480.195 311.816 480.183 311.76C480.279 311.656 480.509 311.57 480.873 311.502C481.241 311.434 481.639 311.4 482.067 311.4C482.603 311.4 483.063 311.458 483.447 311.574C483.831 311.686 484.039 311.86 484.071 312.096C483.947 312.096 483.827 312.082 483.711 312.054C483.595 312.026 483.449 311.984 483.273 311.928C483.049 311.852 482.843 311.794 482.655 311.754C482.471 311.714 482.263 311.694 482.031 311.694C481.883 311.694 481.721 311.706 481.545 311.73C481.545 312.102 481.555 312.572 481.575 313.14L481.785 313.122C482.425 313.07 482.799 313.044 482.907 313.044C482.959 313.044 482.995 313.048 483.015 313.056C483.035 313.06 483.051 313.068 483.063 313.08C483.067 313.2 482.953 313.286 482.721 313.338C482.489 313.386 482.121 313.42 481.617 313.44C481.637 313.636 481.675 313.892 481.731 314.208C481.783 314.504 481.815 314.744 481.827 314.928ZM485.741 315.006C485.409 315.006 485.111 314.938 484.847 314.802C484.587 314.666 484.383 314.474 484.235 314.226C484.087 313.978 484.013 313.692 484.013 313.368C484.013 313.148 484.057 312.946 484.145 312.762C484.233 312.578 484.361 312.432 484.529 312.324C484.697 312.212 484.895 312.156 485.123 312.156C485.555 312.156 485.939 312.23 486.275 312.378C486.615 312.522 486.879 312.73 487.067 313.002C487.259 313.274 487.355 313.588 487.355 313.944C487.355 314.18 487.267 314.378 487.091 314.538C486.919 314.698 486.707 314.816 486.455 314.892C486.207 314.968 485.969 315.006 485.741 315.006ZM485.627 314.694C486.027 314.694 486.363 314.634 486.635 314.514C486.911 314.394 487.049 314.194 487.049 313.914C487.049 313.426 486.861 313.06 486.485 312.816C486.109 312.568 485.629 312.444 485.045 312.444C484.765 312.444 484.567 312.528 484.451 312.696C484.339 312.86 484.283 313.084 484.283 313.368C484.283 313.604 484.339 313.824 484.451 314.028C484.567 314.228 484.727 314.39 484.931 314.514C485.135 314.634 485.367 314.694 485.627 314.694ZM488.652 315C488.6 315.02 488.55 315.008 488.502 314.964C488.458 314.92 488.434 314.858 488.43 314.778C488.414 314.662 488.396 314.52 488.376 314.352C488.36 314.184 488.348 314.06 488.34 313.98C488.332 313.9 488.314 313.746 488.286 313.518C488.262 313.286 488.236 313.086 488.208 312.918C488.2 312.862 488.174 312.762 488.13 312.618C488.014 312.206 487.956 311.908 487.956 311.724C487.984 311.684 488.012 311.664 488.04 311.664C488.144 311.664 488.252 311.872 488.364 312.288C488.476 312.704 488.57 313.174 488.646 313.698C488.726 314.218 488.766 314.574 488.766 314.766C488.766 314.774 488.766 314.8 488.766 314.844C488.766 314.884 488.756 314.918 488.736 314.946C488.72 314.974 488.692 314.992 488.652 315ZM490.784 315.006C490.316 315.006 489.952 314.9 489.692 314.688C489.436 314.472 489.308 314.14 489.308 313.692C489.308 313.464 489.364 313.248 489.476 313.044C489.592 312.836 489.746 312.67 489.938 312.546C490.134 312.418 490.344 312.354 490.568 312.354C490.796 312.354 490.99 312.404 491.15 312.504C491.31 312.6 491.39 312.74 491.39 312.924C491.39 313.052 491.366 313.144 491.318 313.2C491.274 313.252 491.224 313.278 491.168 313.278C491.168 313.086 491.116 312.93 491.012 312.81C490.908 312.69 490.76 312.63 490.568 312.63C490.376 312.63 490.21 312.682 490.07 312.786C489.93 312.886 489.822 313.02 489.746 313.188C489.674 313.352 489.638 313.524 489.638 313.704C489.638 314.084 489.766 314.342 490.022 314.478C490.282 314.614 490.624 314.682 491.048 314.682C491.192 314.682 491.38 314.674 491.612 314.658C491.62 314.658 491.638 314.666 491.666 314.682C491.694 314.698 491.716 314.708 491.732 314.712V314.748C491.732 314.864 491.63 314.936 491.426 314.964C491.222 314.992 491.008 315.006 490.784 315.006Z" fill="black"/>
</svg>
