<svg width="793" height="88" viewBox="0 0 793 88" fill="none" xmlns="http://www.w3.org/2000/svg">
<path d="M112.665 17.258C89.4272 -1.10242 79.8256 -1.289 -1 17.258V88H789L780.995 58.3082C780.995 58.3082 779.587 50.734 766.5 36.5C766.5 36.5 744.878 -6.74666 693.034 17.62C683.303 24.3818 653.975 36.6911 614.513 31.8339C594.38 28.9099 576.595 13.2881 570.219 5.8427C563 13.4556 510.323 31.8339 488.5 31.8339C466.677 31.8339 452.806 29.9783 447.08 24.6404C426.201 11.3641 393.028 -6.97647 377.368 9.57341C360.276 27.6375 318.096 37.6317 300.584 37.9054C288.797 38.4529 259.363 27.8045 219.758 7.10978L203.088 13.4556C172.61 24.1314 138.192 37.4283 112.665 17.258Z" fill="#68C9FF" fill-opacity="0.78" stroke="#68C9FF" stroke-width="5"/>
</svg>
